{
  "metadata": {
    "exportDate": "2025-07-28",
    "exportTime": "21:46:54",
    "source": "MIDI Editor",
    "format": "decoupled-timing"
  },
  "layers": {
    "layer0": {
      "metadata": {
        "durationType": "absolute",
        "totalDuration": 8.023958333333333,
        "key": "F",
        "scale": "phrygian"
      },
      "notes": [
        {
          "midi": 81,
          "vel": 0.5905511811023622,
          "dur": 0.49583333333333335
        },
        {
          "midi": 80,
          "vel": 0.7007874015748031,
          "dur": 0.16666666666666663
        },
        {
          "midi": 78,
          "vel": 0.7086614173228346,
          "dur": 0.16666666666666674
        },
        {
          "midi": 76,
          "vel": 0.3937007874015748,
          "dur": 0.16666666666666674
        },
        {
          "midi": 78,
          "vel": 0.3937007874015748,
          "dur": 0.16666666666666674
        },
        {
          "midi": 73,
          "vel": 0.3937007874015748,
          "dur": 0.16666666666666652
        },
        {
          "midi": 76,
          "vel": 0.3937007874015748,
          "dur": 0.16666666666666674
        },
        {
          "midi": 71,
          "vel": 0.3937007874015748,
          "dur": 0.16666666666666674
        },
        {
          "midi": 73,
          "vel": 0.3937007874015748,
          "dur": 0.16666666666666652
        },
        {
          "midi": 68,
          "vel": 0.3937007874015748,
          "dur": 0.16666666666666652
        },
        {
          "midi": 71,
          "vel": 0.3937007874015748,
          "dur": 0.16666666666666696
        },
        {
          "midi": 66,
          "vel": 0.3937007874015748,
          "dur": 0.16666666666666652
        },
        {
          "midi": 68,
          "vel": 0.3937007874015748,
          "dur": 0.16666666666666652
        },
        {
          "midi": 64,
          "vel": 0.3937007874015748,
          "dur": 0.16666666666666696
        },
        {
          "midi": 68,
          "vel": 0.3937007874015748,
          "dur": 0.16666666666666652
        },
        {
          "midi": 63,
          "vel": 0.3937007874015748,
          "dur": 1
        },
        {
          "midi": 61,
          "vel": 0.3937007874015748,
          "dur": 0.5
        },
        {
          "midi": 59,
          "vel": 0.3937007874015748,
          "dur": 0.25
        },
        {
          "midi": 76,
          "vel": 0.3937007874015748,
          "dur": 0.16666666666666696
        },
        {
          "midi": 78,
          "vel": 0.3937007874015748,
          "dur": 0.16666666666666607
        },
        {
          "midi": 73,
          "vel": 0.3937007874015748,
          "dur": 0.16666666666666696
        },
        {
          "midi": 76,
          "vel": 0.3937007874015748,
          "dur": 0.16666666666666696
        },
        {
          "midi": 71,
          "vel": 0.3937007874015748,
          "dur": 0.16666666666666607
        },
        {
          "midi": 73,
          "vel": 0.3937007874015748,
          "dur": 0.16666666666666696
        },
        {
          "midi": 68,
          "vel": 0.3937007874015748,
          "dur": 0.16666666666666696
        },
        {
          "midi": 71,
          "vel": 0.3937007874015748,
          "dur": 0.16666666666666607
        },
        {
          "midi": 66,
          "vel": 0.3937007874015748,
          "dur": 0.16666666666666696
        },
        {
          "midi": 68,
          "vel": 0.3937007874015748,
          "dur": 0.16666666666666696
        },
        {
          "midi": 64,
          "vel": 0.3937007874015748,
          "dur": 0.16666666666666607
        },
        {
          "midi": 68,
          "vel": 0.3937007874015748,
          "dur": 0.16666666666666696
        },
        {
          "midi": 63,
          "vel": 0.3937007874015748,
          "dur": 0.6947916666666663
        }
      ],
      "timing": [
        0.0,
        0.06179410619239258,
        0.02077112813189666,
        0.08308451252758665,
        0.020771128131896674,
        0.020771128131896674,
        0.020771128131896646,
        0.020771128131896674,
        0.020771128131896674,
        0.020771128131896646,
        0.020771128131896646,
        0.0207711281318967,
        0.020771128131896646,
        0.020771128131896646,
        0.0207711281318967,
        0.020771128131896646,
        0.12462676879137999,
        0.062313384395689994,
        0.062313384395689994,
        0.0207711281318967,
        0.02077112813189659,
        0.0207711281318967,
        0.0207711281318967,
        0.02077112813189659,
        0.0207711281318967,
        0.0207711281318967,
        0.02077112813189659,
        0.0207711281318967,
        0.0207711281318967,
        0.02077112813189659,
        0.0207711281318967,
        0.08658964039984417
      ]
    }
  }
}