{
  "metadata": {
    "exportDate": "2025-07-26",
    "exportTime": "15:45:59",
    "source": "MIDI Editor",
    "format": "decoupled-timing"
  },
  "layers": {
    "layer0": {
      "metadata": {
        "durationType": "absolute",
        "totalDuration": 211.5,
        "key": "F",
        "scale": "phrygian"
      },
      "notes": [
        {
          "midi": 73,
          "vel": 0.47244094488188976,
          "dur": 0.16666666666666663
        },
        {
          "midi": 76,
          "vel": 0.47244094488188976,
          "dur": 0.16666666666666674
        },
        {
          "midi": 78,
          "vel": 0.47244094488188976,
          "dur": 0.16666666666666663
        },
        {
          "midi": 80,
          "vel": 0.47244094488188976,
          "dur": 0.16666666666666674
        },
        {
          "midi": 75,
          "vel": 0.47244094488188976,
          "dur": 0.16666666666666652
        },
        {
          "midi": 71,
          "vel": 0.47244094488188976,
          "dur": 0.16666666666666674
        },
        {
          "midi": 69,
          "vel": 0.47244094488188976,
          "dur": 0.16666666666666652
        },
        {
          "midi": 73,
          "vel": 0.47244094488188976,
          "dur": 0.16666666666666696
        },
        {
          "midi": 75,
          "vel": 0.47244094488188976,
          "dur": 0.16666666666666652
        },
        {
          "midi": 76,
          "vel": 0.47244094488188976,
          "dur": 0.16666666666666652
        },
        {
          "midi": 71,
          "vel": 0.47244094488188976,
          "dur": 0.16666666666666696
        },
        {
          "midi": 68,
          "vel": 0.47244094488188976,
          "dur": 0.16666666666666652
        },
        {
          "midi": 73,
          "vel": 0.5511811023622047,
          "dur": 0.5
        },
        {
          "midi": 66,
          "vel": 0.47244094488188976,
          "dur": 0.16666666666666607
        },
        {
          "midi": 69,
          "vel": 0.47244094488188976,
          "dur": 0.666666666666667
        },
        {
          "midi": 78,
          "vel": 0.5511811023622047,
          "dur": 0.5
        },
        {
          "midi": 73,
          "vel": 0.5511811023622047,
          "dur": 1
        },
        {
          "midi": 66,
          "vel": 0.47244094488188976,
          "dur": 0.16666666666666607
        },
        {
          "midi": 69,
          "vel": 0.47244094488188976,
          "dur": 0.666666666666667
        },
        {
          "midi": 73,
          "vel": 0.5511811023622047,
          "dur": 0.5
        },
        {
          "midi": 66,
          "vel": 0.47244094488188976,
          "dur": 0.16666666666666607
        },
        {
          "midi": 69,
          "vel": 0.47244094488188976,
          "dur": 0.666666666666667
        },
        {
          "midi": 78,
          "vel": 0.5511811023622047,
          "dur": 0.5
        },
        {
          "midi": 81,
          "vel": 0.5511811023622047,
          "dur": 1
        },
        {
          "midi": 69,
          "vel": 0.47244094488188976,
          "dur": 0.16666666666666607
        },
        {
          "midi": 73,
          "vel": 0.47244094488188976,
          "dur": 0.16666666666666696
        },
        {
          "midi": 81,
          "vel": 0.5905511811023622,
          "dur": 1.166666666666666
        },
        {
          "midi": 80,
          "vel": 0.7007874015748031,
          "dur": 0.16666666666666785
        },
        {
          "midi": 78,
          "vel": 0.7086614173228346,
          "dur": 0.16666666666666607
        },
        {
          "midi": 76,
          "vel": 0.3937007874015748,
          "dur": 0.16666666666666607
        },
        {
          "midi": 78,
          "vel": 0.3937007874015748,
          "dur": 0.16666666666666785
        },
        {
          "midi": 73,
          "vel": 0.3937007874015748,
          "dur": 0.16666666666666607
        },
        {
          "midi": 76,
          "vel": 0.3937007874015748,
          "dur": 0.16666666666666607
        },
        {
          "midi": 71,
          "vel": 0.3937007874015748,
          "dur": 0.16666666666666785
        },
        {
          "midi": 73,
          "vel": 0.3937007874015748,
          "dur": 0.16666666666666607
        },
        {
          "midi": 68,
          "vel": 0.3937007874015748,
          "dur": 0.16666666666666607
        },
        {
          "midi": 71,
          "vel": 0.3937007874015748,
          "dur": 0.16666666666666785
        },
        {
          "midi": 66,
          "vel": 0.3937007874015748,
          "dur": 0.16666666666666607
        },
        {
          "midi": 68,
          "vel": 0.3937007874015748,
          "dur": 0.16666666666666607
        },
        {
          "midi": 64,
          "vel": 0.3937007874015748,
          "dur": 0.16666666666666785
        },
        {
          "midi": 68,
          "vel": 0.3937007874015748,
          "dur": 0.16666666666666607
        },
        {
          "midi": 63,
          "vel": 0.3937007874015748,
          "dur": 1
        },
        {
          "midi": 61,
          "vel": 0.3937007874015748,
          "dur": 0.5
        },
        {
          "midi": 59,
          "vel": 0.3937007874015748,
          "dur": 0.25
        },
        {
          "midi": 76,
          "vel": 0.3937007874015748,
          "dur": 0.16666666666666607
        },
        {
          "midi": 78,
          "vel": 0.3937007874015748,
          "dur": 0.16666666666666785
        },
        {
          "midi": 73,
          "vel": 0.3937007874015748,
          "dur": 0.16666666666666607
        },
        {
          "midi": 76,
          "vel": 0.3937007874015748,
          "dur": 0.16666666666666607
        },
        {
          "midi": 71,
          "vel": 0.3937007874015748,
          "dur": 0.16666666666666785
        },
        {
          "midi": 73,
          "vel": 0.3937007874015748,
          "dur": 0.16666666666666607
        },
        {
          "midi": 68,
          "vel": 0.3937007874015748,
          "dur": 0.16666666666666607
        },
        {
          "midi": 71,
          "vel": 0.3937007874015748,
          "dur": 0.16666666666666785
        },
        {
          "midi": 66,
          "vel": 0.3937007874015748,
          "dur": 0.16666666666666607
        },
        {
          "midi": 68,
          "vel": 0.3937007874015748,
          "dur": 0.16666666666666785
        },
        {
          "midi": 64,
          "vel": 0.3937007874015748,
          "dur": 0.1666666666666643
        },
        {
          "midi": 68,
          "vel": 0.3937007874015748,
          "dur": 0.16666666666666785
        },
        {
          "midi": 63,
          "vel": 0.3937007874015748,
          "dur": 1
        },
        {
          "midi": 61,
          "vel": 0.3937007874015748,
          "dur": 0.5
        },
        {
          "midi": 59,
          "vel": 0.3937007874015748,
          "dur": 0.16666666666666785
        },
        {
          "midi": 57,
          "vel": 0.3937007874015748,
          "dur": 0.1666666666666643
        },
        {
          "midi": 59,
          "vel": 0.4015748031496063,
          "dur": 0.16666666666666785
        },
        {
          "midi": 61,
          "vel": 0.4094488188976378,
          "dur": 0.75
        },
        {
          "midi": 64,
          "vel": 0.4330708661417323,
          "dur": 0.25
        },
        {
          "midi": 63,
          "vel": 0.44881889763779526,
          "dur": 0.25
        },
        {
          "midi": 64,
          "vel": 0.4566929133858268,
          "dur": 0.25
        },
        {
          "midi": 61,
          "vel": 0.4645669291338583,
          "dur": 0.5
        },
        {
          "midi": 68,
          "vel": 0.48031496062992124,
          "dur": 1
        },
        {
          "midi": 64,
          "vel": 0.5196850393700787,
          "dur": 0.5
        },
        {
          "midi": 63,
          "vel": 0.5354330708661418,
          "dur": 0.16666666666666785
        },
        {
          "midi": 61,
          "vel": 0.5433070866141733,
          "dur": 0.1666666666666643
        },
        {
          "midi": 63,
          "vel": 0.5511811023622047,
          "dur": 0.16666666666666785
        },
        {
          "midi": 64,
          "vel": 0.5590551181102362,
          "dur": 0.75
        },
        {
          "midi": 68,
          "vel": 0.5826771653543307,
          "dur": 0.25
        },
        {
          "midi": 66,
          "vel": 0.5905511811023622,
          "dur": 0.25
        },
        {
          "midi": 68,
          "vel": 0.6062992125984252,
          "dur": 0.25
        },
        {
          "midi": 64,
          "vel": 0.6141732283464567,
          "dur": 0.5
        },
        {
          "midi": 73,
          "vel": 0.6299212598425197,
          "dur": 1
        },
        {
          "midi": 70,
          "vel": 0.6692913385826772,
          "dur": 0.16666666666666785
        },
        {
          "midi": 73,
          "vel": 0.6771653543307087,
          "dur": 0.1666666666666643
        },
        {
          "midi": 70,
          "vel": 0.6771653543307087,
          "dur": 0.16666666666666785
        },
        {
          "midi": 68,
          "vel": 0.6850393700787402,
          "dur": 0.5
        },
        {
          "midi": 76,
          "vel": 0.7007874015748031,
          "dur": 1
        },
        {
          "midi": 73,
          "vel": 0.7401574803149606,
          "dur": 0.16666666666666785
        },
        {
          "midi": 76,
          "vel": 0.7480314960629921,
          "dur": 0.1666666666666643
        },
        {
          "midi": 73,
          "vel": 0.7559055118110236,
          "dur": 0.16666666666666785
        },
        {
          "midi": 80,
          "vel": 0.7637795275590551,
          "dur": 0.75
        },
        {
          "midi": 78,
          "vel": 0.7874015748031497,
          "dur": 0.25
        },
        {
          "midi": 80,
          "vel": 0.7952755905511811,
          "dur": 0.75
        },
        {
          "midi": 78,
          "vel": 0.8267716535433071,
          "dur": 0.25
        },
        {
          "midi": 80,
          "vel": 0.8346456692913385,
          "dur": 0.75
        },
        {
          "midi": 78,
          "vel": 0.8582677165354331,
          "dur": 0.25
        },
        {
          "midi": 80,
          "vel": 0.8661417322834646,
          "dur": 0.25
        },
        {
          "midi": 78,
          "vel": 0.7795275590551181,
          "dur": 0.5
        },
        {
          "midi": 80,
          "vel": 0.5905511811023622,
          "dur": 0.25
        },
        {
          "midi": 81,
          "vel": 0.5511811023622047,
          "dur": 1
        },
        {
          "midi": 73,
          "vel": 0.47244094488188976,
          "dur": 0.1666666666666643
        },
        {
          "midi": 76,
          "vel": 0.47244094488188976,
          "dur": 0.1666666666666714
        },
        {
          "midi": 78,
          "vel": 0.47244094488188976,
          "dur": 0.1666666666666643
        },
        {
          "midi": 80,
          "vel": 0.5511811023622047,
          "dur": 1
        },
        {
          "midi": 75,
          "vel": 0.47244094488188976,
          "dur": 0.1666666666666714
        },
        {
          "midi": 71,
          "vel": 0.47244094488188976,
          "dur": 0.1666666666666643
        },
        {
          "midi": 78,
          "vel": 0.5511811023622047,
          "dur": 1
        },
        {
          "midi": 69,
          "vel": 0.47244094488188976,
          "dur": 0.1666666666666643
        },
        {
          "midi": 73,
          "vel": 0.47244094488188976,
          "dur": 0.1666666666666714
        },
        {
          "midi": 75,
          "vel": 0.47244094488188976,
          "dur": 0.1666666666666643
        },
        {
          "midi": 76,
          "vel": 0.5511811023622047,
          "dur": 1
        },
        {
          "midi": 71,
          "vel": 0.47244094488188976,
          "dur": 0.1666666666666714
        },
        {
          "midi": 68,
          "vel": 0.47244094488188976,
          "dur": 0.1666666666666643
        },
        {
          "midi": 75,
          "vel": 0.5511811023622047,
          "dur": 1
        },
        {
          "midi": 76,
          "vel": 0.5511811023622047,
          "dur": 0.5
        },
        {
          "midi": 80,
          "vel": 0.5511811023622047,
          "dur": 0.25
        },
        {
          "midi": 83,
          "vel": 0.5511811023622047,
          "dur": 0.25
        },
        {
          "midi": 75,
          "vel": 0.5511811023622047,
          "dur": 1.25
        },
        {
          "midi": 73,
          "vel": 0.5511811023622047,
          "dur": 0.25
        },
        {
          "midi": 76,
          "vel": 0.5511811023622047,
          "dur": 0.25
        },
        {
          "midi": 80,
          "vel": 0.5511811023622047,
          "dur": 0.25
        },
        {
          "midi": 71,
          "vel": 0.5511811023622047,
          "dur": 1.25
        },
        {
          "midi": 69,
          "vel": 0.5511811023622047,
          "dur": 0.25
        },
        {
          "midi": 73,
          "vel": 0.5511811023622047,
          "dur": 0.25
        },
        {
          "midi": 76,
          "vel": 0.5511811023622047,
          "dur": 0.25
        },
        {
          "midi": 68,
          "vel": 0.5511811023622047,
          "dur": 1
        },
        {
          "midi": 69,
          "vel": 0.5511811023622047,
          "dur": 0.1666666666666714
        },
        {
          "midi": 73,
          "vel": 0.5511811023622047,
          "dur": 0.1666666666666643
        },
        {
          "midi": 76,
          "vel": 0.5511811023622047,
          "dur": 0.1666666666666643
        },
        {
          "midi": 80,
          "vel": 0.5511811023622047,
          "dur": 0.1666666666666714
        },
        {
          "midi": 78,
          "vel": 0.5511811023622047,
          "dur": 0.1666666666666643
        },
        {
          "midi": 75,
          "vel": 0.5511811023622047,
          "dur": 0.5
        },
        {
          "midi": 68,
          "vel": 0.5511811023622047,
          "dur": 0.5
        },
        {
          "midi": 66,
          "vel": 0.5511811023622047,
          "dur": 0.25
        },
        {
          "midi": 69,
          "vel": 0.5511811023622047,
          "dur": 0.25
        },
        {
          "midi": 73,
          "vel": 0.5511811023622047,
          "dur": 0.25
        },
        {
          "midi": 64,
          "vel": 0.5511811023622047,
          "dur": 1
        },
        {
          "midi": 66,
          "vel": 0.5511811023622047,
          "dur": 0.1666666666666714
        },
        {
          "midi": 69,
          "vel": 0.5511811023622047,
          "dur": 0.1666666666666643
        },
        {
          "midi": 73,
          "vel": 0.5511811023622047,
          "dur": 0.1666666666666643
        },
        {
          "midi": 76,
          "vel": 0.5511811023622047,
          "dur": 0.1666666666666714
        },
        {
          "midi": 74,
          "vel": 0.5511811023622047,
          "dur": 0.1666666666666643
        },
        {
          "midi": 68,
          "vel": 0.5511811023622047,
          "dur": 0.5
        },
        {
          "midi": 66,
          "vel": 0.5511811023622047,
          "dur": 1
        },
        {
          "midi": 62,
          "vel": 0.5511811023622047,
          "dur": 0.5
        },
        {
          "midi": 66,
          "vel": 0.5511811023622047,
          "dur": 2.5
        },
        {
          "midi": 57,
          "vel": 0.47244094488188976,
          "dur": 0.1666666666666643
        },
        {
          "midi": 59,
          "vel": 0.47244094488188976,
          "dur": 0.1666666666666714
        },
        {
          "midi": 61,
          "vel": 0.47244094488188976,
          "dur": 0.1666666666666643
        },
        {
          "midi": 59,
          "vel": 0.47244094488188976,
          "dur": 0.1666666666666643
        },
        {
          "midi": 57,
          "vel": 0.47244094488188976,
          "dur": 0.1666666666666714
        },
        {
          "midi": 59,
          "vel": 0.47244094488188976,
          "dur": 0.1666666666666643
        },
        {
          "midi": 61,
          "vel": 0.47244094488188976,
          "dur": 0.1666666666666643
        },
        {
          "midi": 59,
          "vel": 0.47244094488188976,
          "dur": 0.1666666666666714
        },
        {
          "midi": 57,
          "vel": 0.47244094488188976,
          "dur": 0.1666666666666643
        },
        {
          "midi": 61,
          "vel": 0.47244094488188976,
          "dur": 1
        },
        {
          "midi": 66,
          "vel": 0.5590551181102362,
          "dur": 0.5
        },
        {
          "midi": 69,
          "vel": 0.5669291338582677,
          "dur": 0.5
        },
        {
          "midi": 63,
          "vel": 0.4881889763779528,
          "dur": 2
        },
        {
          "midi": 66,
          "vel": 0.5826771653543307,
          "dur": 0.5
        },
        {
          "midi": 71,
          "vel": 0.5905511811023622,
          "dur": 0.5
        },
        {
          "midi": 68,
          "vel": 0.6062992125984252,
          "dur": 0.5
        },
        {
          "midi": 71,
          "vel": 0.6141732283464567,
          "dur": 0.5
        },
        {
          "midi": 64,
          "vel": 0.5354330708661418,
          "dur": 1
        },
        {
          "midi": 68,
          "vel": 0.6220472440944882,
          "dur": 0.5
        },
        {
          "midi": 73,
          "vel": 0.6377952755905512,
          "dur": 2.5
        },
        {
          "midi": 61,
          "vel": 0.5826771653543307,
          "dur": 0.1666666666666643
        },
        {
          "midi": 64,
          "vel": 0.5826771653543307,
          "dur": 0.1666666666666714
        },
        {
          "midi": 66,
          "vel": 0.5905511811023622,
          "dur": 0.1666666666666643
        },
        {
          "midi": 69,
          "vel": 0.5905511811023622,
          "dur": 0.1666666666666643
        },
        {
          "midi": 68,
          "vel": 0.5984251968503937,
          "dur": 0.1666666666666714
        },
        {
          "midi": 66,
          "vel": 0.5984251968503937,
          "dur": 0.1666666666666643
        },
        {
          "midi": 64,
          "vel": 0.6062992125984252,
          "dur": 1
        },
        {
          "midi": 66,
          "vel": 0.6929133858267716,
          "dur": 0.5
        },
        {
          "midi": 69,
          "vel": 0.6929133858267716,
          "dur": 0.5
        },
        {
          "midi": 68,
          "vel": 0.7007874015748031,
          "dur": 0.5
        },
        {
          "midi": 71,
          "vel": 0.7007874015748031,
          "dur": 0.5
        },
        {
          "midi": 69,
          "vel": 0.7165354330708661,
          "dur": 0.5
        },
        {
          "midi": 73,
          "vel": 0.7165354330708661,
          "dur": 0.5
        },
        {
          "midi": 73,
          "vel": 0.7244094488188977,
          "dur": 2.5
        },
        {
          "midi": 61,
          "vel": 0.6692913385826772,
          "dur": 0.1666666666666714
        },
        {
          "midi": 64,
          "vel": 0.6771653543307087,
          "dur": 0.1666666666666572
        },
        {
          "midi": 66,
          "vel": 0.6771653543307087,
          "dur": 0.1666666666666714
        },
        {
          "midi": 69,
          "vel": 0.6850393700787402,
          "dur": 0.1666666666666714
        },
        {
          "midi": 68,
          "vel": 0.6850393700787402,
          "dur": 0.1666666666666572
        },
        {
          "midi": 66,
          "vel": 0.6929133858267716,
          "dur": 0.1666666666666714
        },
        {
          "midi": 66,
          "vel": 0.7007874015748031,
          "dur": 0.1666666666666714
        },
        {
          "midi": 69,
          "vel": 0.7795275590551181,
          "dur": 0.5
        },
        {
          "midi": 61,
          "vel": 0.7086614173228346,
          "dur": 0.1666666666666572
        },
        {
          "midi": 64,
          "vel": 0.7086614173228346,
          "dur": 0.1666666666666714
        },
        {
          "midi": 68,
          "vel": 0.7165354330708661,
          "dur": 0.1666666666666714
        },
        {
          "midi": 71,
          "vel": 0.7952755905511811,
          "dur": 0.5
        },
        {
          "midi": 63,
          "vel": 0.7165354330708661,
          "dur": 0.1666666666666572
        },
        {
          "midi": 66,
          "vel": 0.7244094488188977,
          "dur": 0.1666666666666714
        },
        {
          "midi": 69,
          "vel": 0.7244094488188977,
          "dur": 0.1666666666666714
        },
        {
          "midi": 73,
          "vel": 0.8031496062992126,
          "dur": 0.5
        },
        {
          "midi": 64,
          "vel": 0.7322834645669292,
          "dur": 0.1666666666666572
        },
        {
          "midi": 68,
          "vel": 0.7322834645669292,
          "dur": 0.1666666666666714
        },
        {
          "midi": 71,
          "vel": 0.7401574803149606,
          "dur": 0.1666666666666714
        },
        {
          "midi": 75,
          "vel": 0.8188976377952756,
          "dur": 0.5
        },
        {
          "midi": 66,
          "vel": 0.7401574803149606,
          "dur": 0.1666666666666572
        },
        {
          "midi": 69,
          "vel": 0.7480314960629921,
          "dur": 0.1666666666666714
        },
        {
          "midi": 73,
          "vel": 0.7480314960629921,
          "dur": 0.1666666666666714
        },
        {
          "midi": 76,
          "vel": 0.8267716535433071,
          "dur": 0.5
        },
        {
          "midi": 68,
          "vel": 0.7559055118110236,
          "dur": 0.1666666666666572
        },
        {
          "midi": 71,
          "vel": 0.7559055118110236,
          "dur": 0.1666666666666714
        },
        {
          "midi": 75,
          "vel": 0.7637795275590551,
          "dur": 0.1666666666666714
        },
        {
          "midi": 78,
          "vel": 0.84251968503937,
          "dur": 0.5
        },
        {
          "midi": 69,
          "vel": 0.7637795275590551,
          "dur": 0.1666666666666572
        },
        {
          "midi": 73,
          "vel": 0.7716535433070866,
          "dur": 0.1666666666666714
        },
        {
          "midi": 76,
          "vel": 0.7716535433070866,
          "dur": 0.1666666666666714
        },
        {
          "midi": 80,
          "vel": 0.8503937007874016,
          "dur": 0.5
        },
        {
          "midi": 71,
          "vel": 0.7795275590551181,
          "dur": 0.1666666666666572
        },
        {
          "midi": 75,
          "vel": 0.7795275590551181,
          "dur": 0.1666666666666714
        },
        {
          "midi": 78,
          "vel": 0.7795275590551181,
          "dur": 0.1666666666666714
        },
        {
          "midi": 81,
          "vel": 0.8582677165354331,
          "dur": 0.5
        },
        {
          "midi": 73,
          "vel": 0.7874015748031497,
          "dur": 0.1666666666666572
        },
        {
          "midi": 76,
          "vel": 0.7874015748031497,
          "dur": 0.1666666666666714
        },
        {
          "midi": 80,
          "vel": 0.7874015748031497,
          "dur": 0.1666666666666714
        },
        {
          "midi": 83,
          "vel": 0.8661417322834646,
          "dur": 0.5
        },
        {
          "midi": 75,
          "vel": 0.7559055118110236,
          "dur": 0.1666666666666572
        },
        {
          "midi": 78,
          "vel": 0.7165354330708661,
          "dur": 0.1666666666666714
        },
        {
          "midi": 81,
          "vel": 0.6771653543307087,
          "dur": 0.1666666666666714
        },
        {
          "midi": 85,
          "vel": 0.7559055118110236,
          "dur": 0.5
        },
        {
          "midi": 76,
          "vel": 0.6377952755905512,
          "dur": 0.1666666666666572
        },
        {
          "midi": 80,
          "vel": 0.5984251968503937,
          "dur": 0.1666666666666714
        },
        {
          "midi": 83,
          "vel": 0.5590551181102362,
          "dur": 0.1666666666666714
        },
        {
          "midi": 87,
          "vel": 0.6377952755905512,
          "dur": 0.5
        },
        {
          "midi": 78,
          "vel": 0.5196850393700787,
          "dur": 0.1666666666666572
        },
        {
          "midi": 81,
          "vel": 0.48031496062992124,
          "dur": 0.1666666666666714
        },
        {
          "midi": 90,
          "vel": 0.5511811023622047,
          "dur": 1
        },
        {
          "midi": 80,
          "vel": 0.47244094488188976,
          "dur": 2
        },
        {
          "midi": 83,
          "vel": 0.47244094488188976,
          "dur": 2
        },
        {
          "midi": 88,
          "vel": 0.5511811023622047,
          "dur": 1
        },
        {
          "midi": 76,
          "vel": 0.5511811023622047,
          "dur": 2.1666666666666714
        },
        {
          "midi": 69,
          "vel": 0.47244094488188976,
          "dur": 1.5
        },
        {
          "midi": 74,
          "vel": 0.5511811023622047,
          "dur": 0.1666666666666572
        },
        {
          "midi": 76,
          "vel": 0.5511811023622047,
          "dur": 0.1666666666666714
        },
        {
          "midi": 73,
          "vel": 0.5511811023622047,
          "dur": 0.75
        },
        {
          "midi": 71,
          "vel": 0.5511811023622047,
          "dur": 0.25
        },
        {
          "midi": 71,
          "vel": 0.5511811023622047,
          "dur": 0.25
        },
        {
          "midi": 68,
          "vel": 0.47244094488188976,
          "dur": 0.5
        },
        {
          "midi": 73,
          "vel": 0.5511811023622047,
          "dur": 0.25
        },
        {
          "midi": 69,
          "vel": 0.5511811023622047,
          "dur": 0.5
        },
        {
          "midi": 66,
          "vel": 0.47244094488188976,
          "dur": 0.5
        },
        {
          "midi": 66,
          "vel": 0.5511811023622047,
          "dur": 1
        },
        {
          "midi": 63,
          "vel": 0.47244094488188976,
          "dur": 1.5
        },
        {
          "midi": 68,
          "vel": 0.5511811023622047,
          "dur": 0.5
        },
        {
          "midi": 66,
          "vel": 0.5511811023622047,
          "dur": 0.25
        },
        {
          "midi": 62,
          "vel": 0.47244094488188976,
          "dur": 0.5
        },
        {
          "midi": 56,
          "vel": 0.47244094488188976,
          "dur": 0.5
        },
        {
          "midi": 64,
          "vel": 0.5511811023622047,
          "dur": 0.25
        },
        {
          "midi": 78,
          "vel": 0.5511811023622047,
          "dur": 1
        },
        {
          "midi": 74,
          "vel": 0.47244094488188976,
          "dur": 1.5
        },
        {
          "midi": 71,
          "vel": 0.47244094488188976,
          "dur": 1.5
        },
        {
          "midi": 76,
          "vel": 0.5511811023622047,
          "dur": 0.5
        },
        {
          "midi": 66,
          "vel": 0.5511811023622047,
          "dur": 0.25
        },
        {
          "midi": 61,
          "vel": 0.47244094488188976,
          "dur": 0.5
        },
        {
          "midi": 57,
          "vel": 0.47244094488188976,
          "dur": 0.5
        },
        {
          "midi": 64,
          "vel": 0.5511811023622047,
          "dur": 0.25
        },
        {
          "midi": 80,
          "vel": 0.5511811023622047,
          "dur": 0.75
        },
        {
          "midi": 69,
          "vel": 0.47244094488188976,
          "dur": 1.5
        },
        {
          "midi": 73,
          "vel": 0.47244094488188976,
          "dur": 1.5
        },
        {
          "midi": 83,
          "vel": 0.5511811023622047,
          "dur": 0.25
        },
        {
          "midi": 81,
          "vel": 0.5511811023622047,
          "dur": 0.25
        },
        {
          "midi": 78,
          "vel": 0.5511811023622047,
          "dur": 0.25
        },
        {
          "midi": 76,
          "vel": 0.5511811023622047,
          "dur": 0.1666666666666714
        },
        {
          "midi": 69,
          "vel": 0.47244094488188976,
          "dur": 1.5
        },
        {
          "midi": 74,
          "vel": 0.5511811023622047,
          "dur": 0.1666666666666572
        },
        {
          "midi": 76,
          "vel": 0.5511811023622047,
          "dur": 0.1666666666666714
        },
        {
          "midi": 73,
          "vel": 0.5511811023622047,
          "dur": 0.75
        },
        {
          "midi": 71,
          "vel": 0.5511811023622047,
          "dur": 0.25
        },
        {
          "midi": 71,
          "vel": 0.5511811023622047,
          "dur": 0.25
        },
        {
          "midi": 68,
          "vel": 0.47244094488188976,
          "dur": 0.5
        },
        {
          "midi": 73,
          "vel": 0.5511811023622047,
          "dur": 0.25
        },
        {
          "midi": 69,
          "vel": 0.5511811023622047,
          "dur": 0.5
        },
        {
          "midi": 64,
          "vel": 0.47244094488188976,
          "dur": 1
        },
        {
          "midi": 66,
          "vel": 0.5511811023622047,
          "dur": 0.75
        },
        {
          "midi": 63,
          "vel": 0.47244094488188976,
          "dur": 0.5
        },
        {
          "midi": 66,
          "vel": 0.5511811023622047,
          "dur": 0.25
        },
        {
          "midi": 66,
          "vel": 0.5511811023622047,
          "dur": 0.25
        },
        {
          "midi": 61,
          "vel": 0.47244094488188976,
          "dur": 0.5
        },
        {
          "midi": 68,
          "vel": 0.5511811023622047,
          "dur": 0.25
        },
        {
          "midi": 66,
          "vel": 0.5511811023622047,
          "dur": 0.1666666666666714
        },
        {
          "midi": 64,
          "vel": 0.5511811023622047,
          "dur": 0.1666666666666572
        },
        {
          "midi": 59,
          "vel": 0.5511811023622047,
          "dur": 0.1666666666666714
        },
        {
          "midi": 61,
          "vel": 0.5511811023622047,
          "dur": 1
        },
        {
          "midi": 57,
          "vel": 0.47244094488188976,
          "dur": 1
        },
        {
          "midi": 64,
          "vel": 0.5511811023622047,
          "dur": 0.5
        },
        {
          "midi": 57,
          "vel": 0.47244094488188976,
          "dur": 0.5
        },
        {
          "midi": 61,
          "vel": 0.47244094488188976,
          "dur": 0.5
        },
        {
          "midi": 57,
          "vel": 0.47244094488188976,
          "dur": 0.5
        },
        {
          "midi": 64,
          "vel": 0.5511811023622047,
          "dur": 1.5
        },
        {
          "midi": 59,
          "vel": 0.5511811023622047,
          "dur": 1.5
        },
        {
          "midi": 56,
          "vel": 0.47244094488188976,
          "dur": 1
        },
        {
          "midi": 61,
          "vel": 0.6929133858267716,
          "dur": 0.1666666666666714
        },
        {
          "midi": 64,
          "vel": 0.7007874015748031,
          "dur": 0.1666666666666572
        },
        {
          "midi": 68,
          "vel": 0.7165354330708661,
          "dur": 0.1666666666666714
        },
        {
          "midi": 71,
          "vel": 0.7322834645669292,
          "dur": 0.1666666666666714
        },
        {
          "midi": 69,
          "vel": 0.7401574803149606,
          "dur": 0.1666666666666572
        },
        {
          "midi": 68,
          "vel": 0.7559055118110236,
          "dur": 0.1666666666666714
        },
        {
          "midi": 66,
          "vel": 0.7637795275590551,
          "dur": 0.1666666666666714
        },
        {
          "midi": 69,
          "vel": 0.7795275590551181,
          "dur": 0.1666666666666572
        },
        {
          "midi": 73,
          "vel": 0.7874015748031497,
          "dur": 0.1666666666666714
        },
        {
          "midi": 76,
          "vel": 0.8031496062992126,
          "dur": 0.1666666666666714
        },
        {
          "midi": 74,
          "vel": 0.8110236220472441,
          "dur": 0.1666666666666572
        },
        {
          "midi": 73,
          "vel": 0.8267716535433071,
          "dur": 0.1666666666666714
        },
        {
          "midi": 71,
          "vel": 0.8346456692913385,
          "dur": 0.1666666666666714
        },
        {
          "midi": 74,
          "vel": 0.8503937007874016,
          "dur": 0.1666666666666572
        },
        {
          "midi": 78,
          "vel": 0.8582677165354331,
          "dur": 0.1666666666666714
        },
        {
          "midi": 81,
          "vel": 0.8661417322834646,
          "dur": 0.75
        },
        {
          "midi": 74,
          "vel": 0.7637795275590551,
          "dur": 0.5
        },
        {
          "midi": 71,
          "vel": 0.7637795275590551,
          "dur": 0.5
        },
        {
          "midi": 80,
          "vel": 0.8346456692913385,
          "dur": 0.25
        },
        {
          "midi": 78,
          "vel": 0.8188976377952756,
          "dur": 0.25
        },
        {
          "midi": 74,
          "vel": 0.7401574803149606,
          "dur": 0.5
        },
        {
          "midi": 68,
          "vel": 0.7401574803149606,
          "dur": 0.5
        },
        {
          "midi": 76,
          "vel": 0.8031496062992126,
          "dur": 0.25
        },
        {
          "midi": 78,
          "vel": 0.7952755905511811,
          "dur": 0.25
        },
        {
          "midi": 69,
          "vel": 0.7165354330708661,
          "dur": 1
        },
        {
          "midi": 76,
          "vel": 0.7795275590551181,
          "dur": 0.25
        },
        {
          "midi": 74,
          "vel": 0.7716535433070866,
          "dur": 0.25
        },
        {
          "midi": 73,
          "vel": 0.7559055118110236,
          "dur": 0.25
        },
        {
          "midi": 74,
          "vel": 0.7401574803149606,
          "dur": 0.25
        },
        {
          "midi": 73,
          "vel": 0.7322834645669292,
          "dur": 0.25
        },
        {
          "midi": 71,
          "vel": 0.7165354330708661,
          "dur": 0.25
        },
        {
          "midi": 69,
          "vel": 0.7086614173228346,
          "dur": 0.25
        },
        {
          "midi": 61,
          "vel": 0.6929133858267716,
          "dur": 0.1666666666666714
        },
        {
          "midi": 64,
          "vel": 0.7007874015748031,
          "dur": 0.1666666666666572
        },
        {
          "midi": 68,
          "vel": 0.7165354330708661,
          "dur": 0.1666666666666714
        },
        {
          "midi": 71,
          "vel": 0.7322834645669292,
          "dur": 0.1666666666666714
        },
        {
          "midi": 69,
          "vel": 0.7401574803149606,
          "dur": 0.1666666666666572
        },
        {
          "midi": 68,
          "vel": 0.7559055118110236,
          "dur": 0.1666666666666714
        },
        {
          "midi": 66,
          "vel": 0.7637795275590551,
          "dur": 0.1666666666666714
        },
        {
          "midi": 69,
          "vel": 0.7795275590551181,
          "dur": 0.1666666666666572
        },
        {
          "midi": 73,
          "vel": 0.7874015748031497,
          "dur": 0.1666666666666714
        },
        {
          "midi": 76,
          "vel": 0.8031496062992126,
          "dur": 0.1666666666666714
        },
        {
          "midi": 74,
          "vel": 0.8110236220472441,
          "dur": 0.1666666666666572
        },
        {
          "midi": 73,
          "vel": 0.8267716535433071,
          "dur": 0.1666666666666714
        },
        {
          "midi": 71,
          "vel": 0.8346456692913385,
          "dur": 0.1666666666666714
        },
        {
          "midi": 74,
          "vel": 0.8503937007874016,
          "dur": 0.1666666666666572
        },
        {
          "midi": 78,
          "vel": 0.8582677165354331,
          "dur": 0.1666666666666714
        },
        {
          "midi": 81,
          "vel": 0.8661417322834646,
          "dur": 0.75
        },
        {
          "midi": 71,
          "vel": 0.7874015748031497,
          "dur": 1
        },
        {
          "midi": 74,
          "vel": 0.7874015748031497,
          "dur": 1
        },
        {
          "midi": 80,
          "vel": 0.8661417322834646,
          "dur": 0.25
        },
        {
          "midi": 78,
          "vel": 0.8661417322834646,
          "dur": 0.25
        },
        {
          "midi": 80,
          "vel": 0.8661417322834646,
          "dur": 0.25
        },
        {
          "midi": 71,
          "vel": 0.8661417322834646,
          "dur": 0.1666666666666714
        },
        {
          "midi": 74,
          "vel": 0.8661417322834646,
          "dur": 0.1666666666666572
        },
        {
          "midi": 78,
          "vel": 0.8661417322834646,
          "dur": 0.1666666666666714
        },
        {
          "midi": 81,
          "vel": 0.8661417322834646,
          "dur": 0.75
        },
        {
          "midi": 71,
          "vel": 0.7244094488188977,
          "dur": 1
        },
        {
          "midi": 74,
          "vel": 0.7244094488188977,
          "dur": 1
        },
        {
          "midi": 80,
          "vel": 0.7716535433070866,
          "dur": 0.25
        },
        {
          "midi": 78,
          "vel": 0.7322834645669292,
          "dur": 0.25
        },
        {
          "midi": 80,
          "vel": 0.7086614173228346,
          "dur": 0.25
        },
        {
          "midi": 76,
          "vel": 0.5511811023622047,
          "dur": 0.1666666666666714
        },
        {
          "midi": 68,
          "vel": 0.47244094488188976,
          "dur": 1
        },
        {
          "midi": 74,
          "vel": 0.5511811023622047,
          "dur": 0.1666666666666572
        },
        {
          "midi": 76,
          "vel": 0.5511811023622047,
          "dur": 0.1666666666666714
        },
        {
          "midi": 73,
          "vel": 0.5511811023622047,
          "dur": 0.75
        },
        {
          "midi": 66,
          "vel": 0.47244094488188976,
          "dur": 0.5
        },
        {
          "midi": 71,
          "vel": 0.5511811023622047,
          "dur": 0.25
        },
        {
          "midi": 71,
          "vel": 0.5511811023622047,
          "dur": 0.25
        },
        {
          "midi": 65,
          "vel": 0.47244094488188976,
          "dur": 0.5
        },
        {
          "midi": 73,
          "vel": 0.5511811023622047,
          "dur": 0.25
        },
        {
          "midi": 69,
          "vel": 0.5511811023622047,
          "dur": 0.5
        },
        {
          "midi": 64,
          "vel": 0.47244094488188976,
          "dur": 1
        },
        {
          "midi": 66,
          "vel": 0.5511811023622047,
          "dur": 1
        },
        {
          "midi": 63,
          "vel": 0.47244094488188976,
          "dur": 1
        },
        {
          "midi": 68,
          "vel": 0.5511811023622047,
          "dur": 0.5
        },
        {
          "midi": 66,
          "vel": 0.5511811023622047,
          "dur": 0.25
        },
        {
          "midi": 62,
          "vel": 0.47244094488188976,
          "dur": 0.5
        },
        {
          "midi": 56,
          "vel": 0.47244094488188976,
          "dur": 0.5
        },
        {
          "midi": 64,
          "vel": 0.5511811023622047,
          "dur": 0.25
        },
        {
          "midi": 78,
          "vel": 0.5511811023622047,
          "dur": 1
        },
        {
          "midi": 71,
          "vel": 0.47244094488188976,
          "dur": 1.5
        },
        {
          "midi": 74,
          "vel": 0.47244094488188976,
          "dur": 1.5
        },
        {
          "midi": 76,
          "vel": 0.5511811023622047,
          "dur": 0.5
        },
        {
          "midi": 66,
          "vel": 0.5511811023622047,
          "dur": 0.25
        },
        {
          "midi": 61,
          "vel": 0.47244094488188976,
          "dur": 0.5
        },
        {
          "midi": 57,
          "vel": 0.47244094488188976,
          "dur": 0.5
        },
        {
          "midi": 64,
          "vel": 0.5511811023622047,
          "dur": 0.25
        },
        {
          "midi": 80,
          "vel": 0.5511811023622047,
          "dur": 0.75
        },
        {
          "midi": 69,
          "vel": 0.47244094488188976,
          "dur": 1.5
        },
        {
          "midi": 73,
          "vel": 0.47244094488188976,
          "dur": 1.5
        },
        {
          "midi": 83,
          "vel": 0.5511811023622047,
          "dur": 0.25
        },
        {
          "midi": 81,
          "vel": 0.5511811023622047,
          "dur": 0.25
        },
        {
          "midi": 78,
          "vel": 0.5511811023622047,
          "dur": 0.25
        },
        {
          "midi": 76,
          "vel": 0.5511811023622047,
          "dur": 0.1666666666666714
        },
        {
          "midi": 69,
          "vel": 0.47244094488188976,
          "dur": 1.5
        },
        {
          "midi": 74,
          "vel": 0.5511811023622047,
          "dur": 0.1666666666666572
        },
        {
          "midi": 76,
          "vel": 0.5511811023622047,
          "dur": 0.1666666666666714
        },
        {
          "midi": 73,
          "vel": 0.5511811023622047,
          "dur": 0.75
        },
        {
          "midi": 71,
          "vel": 0.5511811023622047,
          "dur": 0.25
        },
        {
          "midi": 71,
          "vel": 0.5511811023622047,
          "dur": 0.25
        },
        {
          "midi": 68,
          "vel": 0.47244094488188976,
          "dur": 0.5
        },
        {
          "midi": 73,
          "vel": 0.5511811023622047,
          "dur": 0.25
        },
        {
          "midi": 69,
          "vel": 0.5511811023622047,
          "dur": 0.5
        },
        {
          "midi": 64,
          "vel": 0.47244094488188976,
          "dur": 1
        },
        {
          "midi": 68,
          "vel": 0.5511811023622047,
          "dur": 0.75
        },
        {
          "midi": 63,
          "vel": 0.47244094488188976,
          "dur": 0.5
        },
        {
          "midi": 66,
          "vel": 0.5511811023622047,
          "dur": 0.25
        },
        {
          "midi": 66,
          "vel": 0.5511811023622047,
          "dur": 0.25
        },
        {
          "midi": 61,
          "vel": 0.47244094488188976,
          "dur": 0.5
        },
        {
          "midi": 68,
          "vel": 0.5511811023622047,
          "dur": 0.25
        },
        {
          "midi": 66,
          "vel": 0.5511811023622047,
          "dur": 0.1666666666666714
        },
        {
          "midi": 64,
          "vel": 0.5511811023622047,
          "dur": 0.1666666666666572
        },
        {
          "midi": 59,
          "vel": 0.5511811023622047,
          "dur": 0.1666666666666714
        },
        {
          "midi": 61,
          "vel": 0.5511811023622047,
          "dur": 1
        },
        {
          "midi": 57,
          "vel": 0.47244094488188976,
          "dur": 1
        },
        {
          "midi": 64,
          "vel": 0.5511811023622047,
          "dur": 0.5
        },
        {
          "midi": 61,
          "vel": 0.47244094488188976,
          "dur": 0.5
        },
        {
          "midi": 57,
          "vel": 0.47244094488188976,
          "dur": 0.5
        },
        {
          "midi": 57,
          "vel": 0.47244094488188976,
          "dur": 0.5
        },
        {
          "midi": 64,
          "vel": 0.5511811023622047,
          "dur": 1.5
        },
        {
          "midi": 59,
          "vel": 0.5511811023622047,
          "dur": 1.5
        },
        {
          "midi": 56,
          "vel": 0.5511811023622047,
          "dur": 1
        },
        {
          "midi": 67,
          "vel": 0.8661417322834646,
          "dur": 0.1666666666666714
        },
        {
          "midi": 60,
          "vel": 0.7874015748031497,
          "dur": 0.5
        },
        {
          "midi": 55,
          "vel": 0.7874015748031497,
          "dur": 0.5
        },
        {
          "midi": 65,
          "vel": 0.8661417322834646,
          "dur": 0.1666666666666572
        },
        {
          "midi": 67,
          "vel": 0.8661417322834646,
          "dur": 0.1666666666666714
        },
        {
          "midi": 60,
          "vel": 0.8661417322834646,
          "dur": 1
        },
        {
          "midi": 57,
          "vel": 0.8661417322834646,
          "dur": 1
        },
        {
          "midi": 64,
          "vel": 0.8661417322834646,
          "dur": 1
        },
        {
          "midi": 62,
          "vel": 0.8661417322834646,
          "dur": 0.5
        },
        {
          "midi": 60,
          "vel": 0.8661417322834646,
          "dur": 0.5
        },
        {
          "midi": 55,
          "vel": 0.8661417322834646,
          "dur": 1
        },
        {
          "midi": 60,
          "vel": 0.8661417322834646,
          "dur": 0.5
        },
        {
          "midi": 62,
          "vel": 0.8661417322834646,
          "dur": 0.5
        },
        {
          "midi": 60,
          "vel": 0.8661417322834646,
          "dur": 0.5
        },
        {
          "midi": 65,
          "vel": 0.8661417322834646,
          "dur": 0.5
        },
        {
          "midi": 60,
          "vel": 0.8661417322834646,
          "dur": 0.5
        },
        {
          "midi": 67,
          "vel": 0.8661417322834646,
          "dur": 0.5
        },
        {
          "midi": 69,
          "vel": 0.8661417322834646,
          "dur": 0.25
        },
        {
          "midi": 65,
          "vel": 0.7874015748031497,
          "dur": 0.5
        },
        {
          "midi": 60,
          "vel": 0.7874015748031497,
          "dur": 0.5
        },
        {
          "midi": 72,
          "vel": 0.8661417322834646,
          "dur": 0.25
        },
        {
          "midi": 71,
          "vel": 0.8661417322834646,
          "dur": 1
        },
        {
          "midi": 74,
          "vel": 0.8661417322834646,
          "dur": 1
        },
        {
          "midi": 65,
          "vel": 0.7874015748031497,
          "dur": 2
        },
        {
          "midi": 67,
          "vel": 0.8661417322834646,
          "dur": 1
        },
        {
          "midi": 79,
          "vel": 0.8661417322834646,
          "dur": 0.1666666666666572
        },
        {
          "midi": 72,
          "vel": 0.7874015748031497,
          "dur": 4
        },
        {
          "midi": 77,
          "vel": 0.8661417322834646,
          "dur": 0.16666666666668561
        },
        {
          "midi": 79,
          "vel": 0.8582677165354331,
          "dur": 0.1666666666666572
        },
        {
          "midi": 76,
          "vel": 0.8503937007874016,
          "dur": 1
        },
        {
          "midi": 74,
          "vel": 0.8110236220472441,
          "dur": 0.5
        },
        {
          "midi": 76,
          "vel": 0.7874015748031497,
          "dur": 1
        },
        {
          "midi": 77,
          "vel": 0.7480314960629921,
          "dur": 1
        },
        {
          "midi": 79,
          "vel": 0.7086614173228346,
          "dur": 0.1666666666666572
        },
        {
          "midi": 72,
          "vel": 0.6299212598425197,
          "dur": 3
        },
        {
          "midi": 77,
          "vel": 0.7007874015748031,
          "dur": 0.16666666666668561
        },
        {
          "midi": 79,
          "vel": 0.6929133858267716,
          "dur": 0.1666666666666572
        },
        {
          "midi": 76,
          "vel": 0.6850393700787402,
          "dur": 1
        },
        {
          "midi": 79,
          "vel": 0.6456692913385826,
          "dur": 0.5
        },
        {
          "midi": 80,
          "vel": 0.6220472440944882,
          "dur": 0.1666666666666572
        },
        {
          "midi": 78,
          "vel": 0.6141732283464567,
          "dur": 0.16666666666668561
        },
        {
          "midi": 80,
          "vel": 0.6062992125984252,
          "dur": 0.1666666666666572
        },
        {
          "midi": 76,
          "vel": 0.6062992125984252,
          "dur": 1
        },
        {
          "midi": 73,
          "vel": 0.5039370078740157,
          "dur": 1
        },
        {
          "midi": 80,
          "vel": 0.5590551181102362,
          "dur": 0.5
        },
        {
          "midi": 81,
          "vel": 0.5511811023622047,
          "dur": 1
        },
        {
          "midi": 73,
          "vel": 0.47244094488188976,
          "dur": 0.1666666666666572
        },
        {
          "midi": 76,
          "vel": 0.47244094488188976,
          "dur": 0.16666666666668561
        },
        {
          "midi": 78,
          "vel": 0.47244094488188976,
          "dur": 0.1666666666666572
        },
        {
          "midi": 80,
          "vel": 0.5511811023622047,
          "dur": 1
        },
        {
          "midi": 75,
          "vel": 0.47244094488188976,
          "dur": 0.16666666666668561
        },
        {
          "midi": 71,
          "vel": 0.47244094488188976,
          "dur": 0.1666666666666572
        },
        {
          "midi": 78,
          "vel": 0.5511811023622047,
          "dur": 1
        },
        {
          "midi": 69,
          "vel": 0.47244094488188976,
          "dur": 0.1666666666666572
        },
        {
          "midi": 73,
          "vel": 0.47244094488188976,
          "dur": 0.16666666666668561
        },
        {
          "midi": 75,
          "vel": 0.47244094488188976,
          "dur": 0.1666666666666572
        },
        {
          "midi": 76,
          "vel": 0.5511811023622047,
          "dur": 1
        },
        {
          "midi": 71,
          "vel": 0.47244094488188976,
          "dur": 0.16666666666668561
        },
        {
          "midi": 68,
          "vel": 0.47244094488188976,
          "dur": 0.1666666666666572
        },
        {
          "midi": 73,
          "vel": 0.5511811023622047,
          "dur": 0.5
        },
        {
          "midi": 66,
          "vel": 0.47244094488188976,
          "dur": 0.16666666666668561
        },
        {
          "midi": 69,
          "vel": 0.47244094488188976,
          "dur": 0.6666666666666572
        },
        {
          "midi": 78,
          "vel": 0.5511811023622047,
          "dur": 0.5
        },
        {
          "midi": 73,
          "vel": 0.5511811023622047,
          "dur": 1
        },
        {
          "midi": 66,
          "vel": 0.47244094488188976,
          "dur": 0.16666666666668561
        },
        {
          "midi": 69,
          "vel": 0.47244094488188976,
          "dur": 0.6666666666666572
        },
        {
          "midi": 73,
          "vel": 0.5511811023622047,
          "dur": 0.5
        },
        {
          "midi": 66,
          "vel": 0.47244094488188976,
          "dur": 0.16666666666668561
        },
        {
          "midi": 69,
          "vel": 0.47244094488188976,
          "dur": 0.6666666666666572
        },
        {
          "midi": 78,
          "vel": 0.5511811023622047,
          "dur": 0.5
        },
        {
          "midi": 81,
          "vel": 0.5511811023622047,
          "dur": 0.5
        },
        {
          "midi": 69,
          "vel": 0.47244094488188976,
          "dur": 0.16666666666668561
        },
        {
          "midi": 73,
          "vel": 0.47244094488188976,
          "dur": 0.1666666666666572
        },
        {
          "midi": 81,
          "vel": 0.5511811023622047,
          "dur": 1.1666666666666572
        },
        {
          "midi": 80,
          "vel": 0.5511811023622047,
          "dur": 0.16666666666668561
        },
        {
          "midi": 78,
          "vel": 0.5511811023622047,
          "dur": 0.1666666666666572
        },
        {
          "midi": 76,
          "vel": 0.5511811023622047,
          "dur": 0.1666666666666572
        },
        {
          "midi": 78,
          "vel": 0.5511811023622047,
          "dur": 0.16666666666668561
        },
        {
          "midi": 73,
          "vel": 0.5511811023622047,
          "dur": 0.1666666666666572
        },
        {
          "midi": 76,
          "vel": 0.5511811023622047,
          "dur": 0.1666666666666572
        },
        {
          "midi": 71,
          "vel": 0.5511811023622047,
          "dur": 0.16666666666668561
        },
        {
          "midi": 73,
          "vel": 0.5511811023622047,
          "dur": 0.1666666666666572
        },
        {
          "midi": 68,
          "vel": 0.5511811023622047,
          "dur": 0.1666666666666572
        },
        {
          "midi": 71,
          "vel": 0.5511811023622047,
          "dur": 0.16666666666668561
        },
        {
          "midi": 66,
          "vel": 0.5511811023622047,
          "dur": 0.1666666666666572
        },
        {
          "midi": 68,
          "vel": 0.5511811023622047,
          "dur": 0.1666666666666572
        },
        {
          "midi": 64,
          "vel": 0.5511811023622047,
          "dur": 0.16666666666668561
        },
        {
          "midi": 68,
          "vel": 0.5511811023622047,
          "dur": 0.1666666666666572
        },
        {
          "midi": 63,
          "vel": 0.5511811023622047,
          "dur": 1
        },
        {
          "midi": 61,
          "vel": 0.5511811023622047,
          "dur": 0.5
        },
        {
          "midi": 59,
          "vel": 0.5511811023622047,
          "dur": 0.5
        },
        {
          "midi": 76,
          "vel": 0.5511811023622047,
          "dur": 0.1666666666666572
        },
        {
          "midi": 78,
          "vel": 0.5511811023622047,
          "dur": 0.16666666666668561
        },
        {
          "midi": 73,
          "vel": 0.5511811023622047,
          "dur": 0.1666666666666572
        },
        {
          "midi": 76,
          "vel": 0.5511811023622047,
          "dur": 0.1666666666666572
        },
        {
          "midi": 71,
          "vel": 0.5511811023622047,
          "dur": 0.16666666666668561
        },
        {
          "midi": 73,
          "vel": 0.5511811023622047,
          "dur": 0.1666666666666572
        },
        {
          "midi": 68,
          "vel": 0.5511811023622047,
          "dur": 0.1666666666666572
        },
        {
          "midi": 71,
          "vel": 0.5511811023622047,
          "dur": 0.16666666666668561
        },
        {
          "midi": 66,
          "vel": 0.5511811023622047,
          "dur": 0.1666666666666572
        },
        {
          "midi": 68,
          "vel": 0.5511811023622047,
          "dur": 0.1666666666666572
        },
        {
          "midi": 64,
          "vel": 0.5511811023622047,
          "dur": 0.16666666666668561
        },
        {
          "midi": 68,
          "vel": 0.5511811023622047,
          "dur": 0.1666666666666572
        },
        {
          "midi": 63,
          "vel": 0.5511811023622047,
          "dur": 1
        },
        {
          "midi": 61,
          "vel": 0.5511811023622047,
          "dur": 0.5
        },
        {
          "midi": 59,
          "vel": 0.5511811023622047,
          "dur": 0.1666666666666572
        },
        {
          "midi": 57,
          "vel": 0.5511811023622047,
          "dur": 0.16666666666668561
        },
        {
          "midi": 59,
          "vel": 0.5590551181102362,
          "dur": 0.1666666666666572
        },
        {
          "midi": 61,
          "vel": 0.5590551181102362,
          "dur": 0.75
        },
        {
          "midi": 64,
          "vel": 0.5748031496062992,
          "dur": 0.25
        },
        {
          "midi": 63,
          "vel": 0.5826771653543307,
          "dur": 0.25
        },
        {
          "midi": 64,
          "vel": 0.5905511811023622,
          "dur": 0.25
        },
        {
          "midi": 61,
          "vel": 0.5984251968503937,
          "dur": 0.5
        },
        {
          "midi": 68,
          "vel": 0.6062992125984252,
          "dur": 1
        },
        {
          "midi": 64,
          "vel": 0.6377952755905512,
          "dur": 0.5
        },
        {
          "midi": 63,
          "vel": 0.6456692913385826,
          "dur": 0.1666666666666572
        },
        {
          "midi": 61,
          "vel": 0.6535433070866141,
          "dur": 0.16666666666668561
        },
        {
          "midi": 63,
          "vel": 0.6535433070866141,
          "dur": 0.1666666666666572
        },
        {
          "midi": 64,
          "vel": 0.6614173228346457,
          "dur": 0.75
        },
        {
          "midi": 68,
          "vel": 0.6771653543307087,
          "dur": 0.25
        },
        {
          "midi": 66,
          "vel": 0.6850393700787402,
          "dur": 0.25
        },
        {
          "midi": 68,
          "vel": 0.6929133858267716,
          "dur": 0.25
        },
        {
          "midi": 64,
          "vel": 0.6929133858267716,
          "dur": 0.5
        },
        {
          "midi": 73,
          "vel": 0.7086614173228346,
          "dur": 1
        },
        {
          "midi": 70,
          "vel": 0.7322834645669292,
          "dur": 0.1666666666666572
        },
        {
          "midi": 73,
          "vel": 0.7401574803149606,
          "dur": 0.16666666666668561
        },
        {
          "midi": 70,
          "vel": 0.7401574803149606,
          "dur": 0.1666666666666572
        },
        {
          "midi": 68,
          "vel": 0.7480314960629921,
          "dur": 0.5
        },
        {
          "midi": 76,
          "vel": 0.7559055118110236,
          "dur": 1
        },
        {
          "midi": 73,
          "vel": 0.7795275590551181,
          "dur": 0.1666666666666572
        },
        {
          "midi": 76,
          "vel": 0.7874015748031497,
          "dur": 0.16666666666668561
        },
        {
          "midi": 73,
          "vel": 0.7952755905511811,
          "dur": 0.1666666666666572
        },
        {
          "midi": 80,
          "vel": 0.7952755905511811,
          "dur": 0.75
        },
        {
          "midi": 78,
          "vel": 0.8110236220472441,
          "dur": 0.25
        },
        {
          "midi": 80,
          "vel": 0.8188976377952756,
          "dur": 0.75
        },
        {
          "midi": 78,
          "vel": 0.84251968503937,
          "dur": 0.25
        },
        {
          "midi": 80,
          "vel": 0.84251968503937,
          "dur": 0.75
        },
        {
          "midi": 78,
          "vel": 0.8661417322834646,
          "dur": 0.25
        },
        {
          "midi": 80,
          "vel": 0.8661417322834646,
          "dur": 0.25
        },
        {
          "midi": 78,
          "vel": 0.7795275590551181,
          "dur": 0.5
        },
        {
          "midi": 80,
          "vel": 0.5905511811023622,
          "dur": 0.25
        },
        {
          "midi": 81,
          "vel": 0.5511811023622047,
          "dur": 1
        },
        {
          "midi": 73,
          "vel": 0.47244094488188976,
          "dur": 0.1666666666666572
        },
        {
          "midi": 76,
          "vel": 0.47244094488188976,
          "dur": 0.16666666666668561
        },
        {
          "midi": 78,
          "vel": 0.47244094488188976,
          "dur": 0.1666666666666572
        },
        {
          "midi": 80,
          "vel": 0.5511811023622047,
          "dur": 1
        },
        {
          "midi": 75,
          "vel": 0.47244094488188976,
          "dur": 0.16666666666668561
        },
        {
          "midi": 71,
          "vel": 0.47244094488188976,
          "dur": 0.1666666666666572
        },
        {
          "midi": 78,
          "vel": 0.5511811023622047,
          "dur": 1
        },
        {
          "midi": 69,
          "vel": 0.47244094488188976,
          "dur": 0.1666666666666572
        },
        {
          "midi": 73,
          "vel": 0.47244094488188976,
          "dur": 0.16666666666668561
        },
        {
          "midi": 75,
          "vel": 0.47244094488188976,
          "dur": 0.1666666666666572
        },
        {
          "midi": 76,
          "vel": 0.5511811023622047,
          "dur": 1
        },
        {
          "midi": 71,
          "vel": 0.47244094488188976,
          "dur": 0.16666666666668561
        },
        {
          "midi": 68,
          "vel": 0.47244094488188976,
          "dur": 0.1666666666666572
        },
        {
          "midi": 81,
          "vel": 0.5511811023622047,
          "dur": 0.5
        },
        {
          "midi": 83,
          "vel": 0.5590551181102362,
          "dur": 0.25
        },
        {
          "midi": 76,
          "vel": 0.48031496062992124,
          "dur": 0.5
        },
        {
          "midi": 85,
          "vel": 0.5669291338582677,
          "dur": 0.25
        },
        {
          "midi": 81,
          "vel": 0.5748031496062992,
          "dur": 0.25
        },
        {
          "midi": 80,
          "vel": 0.5826771653543307,
          "dur": 0.25
        },
        {
          "midi": 81,
          "vel": 0.5905511811023622,
          "dur": 0.25
        },
        {
          "midi": 75,
          "vel": 0.5118110236220472,
          "dur": 0.5
        },
        {
          "midi": 78,
          "vel": 0.5984251968503937,
          "dur": 0.75
        },
        {
          "midi": 73,
          "vel": 0.5275590551181102,
          "dur": 1
        },
        {
          "midi": 78,
          "vel": 0.6220472440944882,
          "dur": 1
        },
        {
          "midi": 71,
          "vel": 0.5590551181102362,
          "dur": 1
        },
        {
          "midi": 76,
          "vel": 0.6535433070866141,
          "dur": 0.75
        },
        {
          "midi": 74,
          "vel": 0.6692913385826772,
          "dur": 0.25
        },
        {
          "midi": 76,
          "vel": 0.6771653543307087,
          "dur": 0.25
        },
        {
          "midi": 69,
          "vel": 0.5984251968503937,
          "dur": 0.5
        },
        {
          "midi": 78,
          "vel": 0.6850393700787402,
          "dur": 0.25
        },
        {
          "midi": 74,
          "vel": 0.6929133858267716,
          "dur": 0.25
        },
        {
          "midi": 73,
          "vel": 0.7007874015748031,
          "dur": 0.25
        },
        {
          "midi": 74,
          "vel": 0.7086614173228346,
          "dur": 0.25
        },
        {
          "midi": 68,
          "vel": 0.6299212598425197,
          "dur": 0.5
        },
        {
          "midi": 73,
          "vel": 0.7165354330708661,
          "dur": 0.75
        },
        {
          "midi": 66,
          "vel": 0.6456692913385826,
          "dur": 1
        },
        {
          "midi": 71,
          "vel": 0.7401574803149606,
          "dur": 1
        },
        {
          "midi": 64,
          "vel": 0.6771653543307087,
          "dur": 1
        },
        {
          "midi": 69,
          "vel": 0.7716535433070866,
          "dur": 0.75
        },
        {
          "midi": 62,
          "vel": 0.7007874015748031,
          "dur": 1
        },
        {
          "midi": 68,
          "vel": 0.7874015748031497,
          "dur": 0.25
        },
        {
          "midi": 69,
          "vel": 0.7952755905511811,
          "dur": 0.25
        },
        {
          "midi": 68,
          "vel": 0.8031496062992126,
          "dur": 0.25
        },
        {
          "midi": 73,
          "vel": 0.8110236220472441,
          "dur": 0.25
        },
        {
          "midi": 61,
          "vel": 0.7322834645669292,
          "dur": 1
        },
        {
          "midi": 69,
          "vel": 0.8188976377952756,
          "dur": 0.25
        },
        {
          "midi": 66,
          "vel": 0.8267716535433071,
          "dur": 0.75
        },
        {
          "midi": 59,
          "vel": 0.7637795275590551,
          "dur": 1
        },
        {
          "midi": 64,
          "vel": 0.8503937007874016,
          "dur": 0.25
        },
        {
          "midi": 66,
          "vel": 0.8582677165354331,
          "dur": 0.25
        },
        {
          "midi": 64,
          "vel": 0.8661417322834646,
          "dur": 0.25
        },
        {
          "midi": 61,
          "vel": 0.7480314960629921,
          "dur": 0.1666666666666572
        },
        {
          "midi": 64,
          "vel": 0.7401574803149606,
          "dur": 0.16666666666668561
        },
        {
          "midi": 69,
          "vel": 0.7401574803149606,
          "dur": 0.1666666666666572
        },
        {
          "midi": 71,
          "vel": 0.7322834645669292,
          "dur": 0.1666666666666572
        },
        {
          "midi": 73,
          "vel": 0.7244094488188977,
          "dur": 0.16666666666668561
        },
        {
          "midi": 76,
          "vel": 0.7165354330708661,
          "dur": 0.1666666666666572
        },
        {
          "midi": 81,
          "vel": 0.7086614173228346,
          "dur": 0.1666666666666572
        },
        {
          "midi": 83,
          "vel": 0.7007874015748031,
          "dur": 0.16666666666668561
        },
        {
          "midi": 85,
          "vel": 0.6929133858267716,
          "dur": 0.1666666666666572
        },
        {
          "midi": 88,
          "vel": 0.6850393700787402,
          "dur": 0.1666666666666572
        },
        {
          "midi": 85,
          "vel": 0.6850393700787402,
          "dur": 0.16666666666668561
        },
        {
          "midi": 83,
          "vel": 0.6771653543307087,
          "dur": 0.1666666666666572
        },
        {
          "midi": 81,
          "vel": 0.6692913385826772,
          "dur": 0.1666666666666572
        },
        {
          "midi": 76,
          "vel": 0.6614173228346457,
          "dur": 0.16666666666668561
        },
        {
          "midi": 73,
          "vel": 0.6535433070866141,
          "dur": 0.1666666666666572
        },
        {
          "midi": 71,
          "vel": 0.6456692913385826,
          "dur": 0.1666666666666572
        },
        {
          "midi": 69,
          "vel": 0.6377952755905512,
          "dur": 0.16666666666668561
        },
        {
          "midi": 64,
          "vel": 0.6377952755905512,
          "dur": 0.1666666666666572
        },
        {
          "midi": 68,
          "vel": 0.5826771653543307,
          "dur": 0.1666666666666572
        },
        {
          "midi": 71,
          "vel": 0.5826771653543307,
          "dur": 0.16666666666668561
        },
        {
          "midi": 75,
          "vel": 0.5748031496062992,
          "dur": 0.1666666666666572
        },
        {
          "midi": 80,
          "vel": 0.5669291338582677,
          "dur": 0.1666666666666572
        },
        {
          "midi": 83,
          "vel": 0.5590551181102362,
          "dur": 0.16666666666668561
        },
        {
          "midi": 71,
          "vel": 0.5511811023622047,
          "dur": 0.1666666666666572
        },
        {
          "midi": 66,
          "vel": 0.6220472440944882,
          "dur": 2
        },
        {
          "midi": 69,
          "vel": 0.5039370078740157,
          "dur": 0.1666666666666572
        },
        {
          "midi": 71,
          "vel": 0.49606299212598426,
          "dur": 0.16666666666668561
        },
        {
          "midi": 75,
          "vel": 0.4881889763779528,
          "dur": 0.1666666666666572
        },
        {
          "midi": 81,
          "vel": 0.48031496062992124,
          "dur": 0.1666666666666572
        },
        {
          "midi": 83,
          "vel": 0.48031496062992124,
          "dur": 0.16666666666668561
        },
        {
          "midi": 71,
          "vel": 0.47244094488188976,
          "dur": 0.1666666666666572
        },
        {
          "midi": 64,
          "vel": 0.5511811023622047,
          "dur": 0.5
        },
        {
          "midi": 88,
          "vel": 0.5511811023622047,
          "dur": 0.1666666666666572
        },
        {
          "midi": 90,
          "vel": 0.5511811023622047,
          "dur": 0.16666666666668561
        },
        {
          "midi": 85,
          "vel": 0.5511811023622047,
          "dur": 0.1666666666666572
        },
        {
          "midi": 88,
          "vel": 0.5511811023622047,
          "dur": 0.1666666666666572
        },
        {
          "midi": 83,
          "vel": 0.5511811023622047,
          "dur": 0.16666666666668561
        },
        {
          "midi": 85,
          "vel": 0.5511811023622047,
          "dur": 0.1666666666666572
        },
        {
          "midi": 80,
          "vel": 0.5511811023622047,
          "dur": 0.1666666666666572
        },
        {
          "midi": 83,
          "vel": 0.5511811023622047,
          "dur": 0.16666666666668561
        },
        {
          "midi": 78,
          "vel": 0.5511811023622047,
          "dur": 0.1666666666666572
        },
        {
          "midi": 80,
          "vel": 0.5511811023622047,
          "dur": 0.1666666666666572
        },
        {
          "midi": 76,
          "vel": 0.5511811023622047,
          "dur": 0.16666666666668561
        },
        {
          "midi": 80,
          "vel": 0.5511811023622047,
          "dur": 0.1666666666666572
        },
        {
          "midi": 75,
          "vel": 0.5511811023622047,
          "dur": 1
        },
        {
          "midi": 73,
          "vel": 0.5511811023622047,
          "dur": 0.5
        },
        {
          "midi": 71,
          "vel": 0.3937007874015748,
          "dur": 0.5
        },
        {
          "midi": 76,
          "vel": 0.3937007874015748,
          "dur": 0.1666666666666572
        },
        {
          "midi": 78,
          "vel": 0.3937007874015748,
          "dur": 0.16666666666668561
        },
        {
          "midi": 73,
          "vel": 0.3937007874015748,
          "dur": 0.1666666666666572
        },
        {
          "midi": 76,
          "vel": 0.3937007874015748,
          "dur": 0.1666666666666572
        },
        {
          "midi": 71,
          "vel": 0.3937007874015748,
          "dur": 0.16666666666668561
        },
        {
          "midi": 73,
          "vel": 0.3937007874015748,
          "dur": 0.1666666666666572
        },
        {
          "midi": 68,
          "vel": 0.3937007874015748,
          "dur": 0.1666666666666572
        },
        {
          "midi": 71,
          "vel": 0.3937007874015748,
          "dur": 0.16666666666668561
        },
        {
          "midi": 66,
          "vel": 0.3937007874015748,
          "dur": 0.1666666666666572
        },
        {
          "midi": 68,
          "vel": 0.3937007874015748,
          "dur": 0.1666666666666572
        },
        {
          "midi": 64,
          "vel": 0.3937007874015748,
          "dur": 0.16666666666668561
        },
        {
          "midi": 68,
          "vel": 0.3937007874015748,
          "dur": 0.1666666666666572
        },
        {
          "midi": 63,
          "vel": 0.3937007874015748,
          "dur": 1
        },
        {
          "midi": 61,
          "vel": 0.3937007874015748,
          "dur": 0.5
        },
        {
          "midi": 59,
          "vel": 0.31496062992125984,
          "dur": 0.16666666666668561
        },
        {
          "midi": 61,
          "vel": 0.31496062992125984,
          "dur": 0.16666666666668561
        },
        {
          "midi": 64,
          "vel": 0.31496062992125984,
          "dur": 0.16666666666668561
        },
        {
          "midi": 66,
          "vel": 0.31496062992125984,
          "dur": 0.16666666666668561
        },
        {
          "midi": 61,
          "vel": 0.31496062992125984,
          "dur": 0.1666666666666572
        },
        {
          "midi": 71,
          "vel": 0.31496062992125984,
          "dur": 0.16666666666668561
        },
        {
          "midi": 64,
          "vel": 0.31496062992125984,
          "dur": 0.1666666666666572
        },
        {
          "midi": 73,
          "vel": 0.31496062992125984,
          "dur": 0.16666666666668561
        },
        {
          "midi": 68,
          "vel": 0.31496062992125984,
          "dur": 0.1666666666666572
        },
        {
          "midi": 76,
          "vel": 0.31496062992125984,
          "dur": 0.16666666666668561
        },
        {
          "midi": 71,
          "vel": 0.31496062992125984,
          "dur": 0.1666666666666572
        },
        {
          "midi": 78,
          "vel": 0.31496062992125984,
          "dur": 0.16666666666668561
        },
        {
          "midi": 73,
          "vel": 0.31496062992125984,
          "dur": 0.1666666666666572
        },
        {
          "midi": 83,
          "vel": 0.31496062992125984,
          "dur": 0.16666666666668561
        },
        {
          "midi": 76,
          "vel": 0.31496062992125984,
          "dur": 0.1666666666666572
        },
        {
          "midi": 85,
          "vel": 0.31496062992125984,
          "dur": 0.16666666666668561
        },
        {
          "midi": 80,
          "vel": 0.31496062992125984,
          "dur": 0.1666666666666572
        },
        {
          "midi": 88,
          "vel": 0.31496062992125984,
          "dur": 0.16666666666668561
        },
        {
          "midi": 83,
          "vel": 0.31496062992125984,
          "dur": 0.1666666666666572
        },
        {
          "midi": 90,
          "vel": 0.31496062992125984,
          "dur": 0.16666666666668561
        },
        {
          "midi": 85,
          "vel": 0.31496062992125984,
          "dur": 0.1666666666666572
        },
        {
          "midi": 88,
          "vel": 0.3937007874015748,
          "dur": 0.5
        },
        {
          "midi": 92,
          "vel": 0.3937007874015748,
          "dur": 0.5
        },
        {
          "midi": 88,
          "vel": 0.3937007874015748,
          "dur": 1
        },
        {
          "midi": 92,
          "vel": 0.3937007874015748,
          "dur": 1
        },
        {
          "midi": 88,
          "vel": 0.3937007874015748,
          "dur": 0.5
        },
        {
          "midi": 92,
          "vel": 0.3937007874015748,
          "dur": 0.5
        },
        {
          "midi": 64,
          "vel": 0.3937007874015748,
          "dur": 0.5
        }
      ],
      "timing": [
        0.002364066193853428,
        0.0007880220646178091,
        0.0007880220646178097,
        0.0007880220646178091,
        0.0007880220646178097,
        0.0007880220646178086,
        0.005516154452324665,
        0.0007880220646178086,
        0.0007880220646178107,
        0.0007880220646178086,
        0.0007880220646178086,
        0.0007880220646178107,
        0.005516154452324664,
        0.0007880220646178107,
        0.0007880220646178065,
        0.0007880220646178107,
        0.002364066193853428,
        0.0007880220646178107,
        0.0007880220646178065,
        0.0031520882584712387,
        0.0007880220646178107,
        0.0007880220646178065,
        0.0007880220646178107,
        0.002364066193853428,
        0.0007880220646178107,
        0.0007880220646178065,
        0.0031520882584712387,
        0.005516154452324663,
        0.0007880220646178149,
        0.0031520882584712344,
        0.0007880220646178065,
        0.0007880220646178149,
        0.0007880220646178065,
        0.0007880220646178065,
        0.0007880220646178149,
        0.0007880220646178065,
        0.0007880220646178065,
        0.0007880220646178149,
        0.0007880220646178065,
        0.0007880220646178065,
        0.0007880220646178149,
        0.0007880220646178065,
        0.004728132387706856,
        0.002364066193853428,
        0.002364066193853428,
        0.0007880220646178065,
        0.0007880220646178149,
        0.0007880220646178065,
        0.0007880220646178065,
        0.0007880220646178149,
        0.0007880220646178065,
        0.0007880220646178065,
        0.0007880220646178149,
        0.0007880220646178065,
        0.0007880220646178149,
        0.0007880220646177981,
        0.0007880220646178149,
        0.004728132387706856,
        0.002364066193853428,
        0.0007880220646178149,
        0.0007880220646177981,
        0.0007880220646178149,
        0.0035460992907801418,
        0.001182033096926714,
        0.001182033096926714,
        0.001182033096926714,
        0.002364066193853428,
        0.004728132387706856,
        0.002364066193853428,
        0.0007880220646178149,
        0.0007880220646177981,
        0.0007880220646178149,
        0.0035460992907801418,
        0.001182033096926714,
        0.001182033096926714,
        0.001182033096926714,
        0.002364066193853428,
        0.004728132387706856,
        0.0007880220646178149,
        0.0007880220646177981,
        0.0007880220646178149,
        0.002364066193853428,
        0.004728132387706856,
        0.0007880220646178149,
        0.0007880220646177981,
        0.0007880220646178149,
        0.0035460992907801418,
        0.001182033096926714,
        0.0035460992907801418,
        0.001182033096926714,
        0.0035460992907801418,
        0.001182033096926714,
        0.001182033096926714,
        0.002364066193853428,
        0.001182033096926714,
        0.002364066193853428,
        0.0007880220646177981,
        0.0007880220646178317,
        0.0007880220646177981,
        0.0007880220646177981,
        0.0007880220646178317,
        0.003152088258471226,
        0.002364066193853428,
        0.0007880220646177981,
        0.0007880220646178317,
        0.0007880220646177981,
        0.0007880220646177981,
        0.0007880220646178317,
        0.003152088258471226,
        0.004728132387706856,
        0.002364066193853428,
        0.001182033096926714,
        0.001182033096926714,
        0.00591016548463357,
        0.001182033096926714,
        0.001182033096926714,
        0.001182033096926714,
        0.00591016548463357,
        0.001182033096926714,
        0.001182033096926714,
        0.001182033096926714,
        0.005516154452324654,
        0.0007880220646178317,
        0.0007880220646177981,
        0.0007880220646177981,
        0.0007880220646178317,
        0.0007880220646177981,
        0.002364066193853428,
        0.0035460992907801418,
        0.001182033096926714,
        0.001182033096926714,
        0.001182033096926714,
        0.005516154452324654,
        0.0007880220646178317,
        0.0007880220646177981,
        0.0007880220646177981,
        0.0007880220646178317,
        0.0007880220646177981,
        0.002364066193853428,
        0.004728132387706856,
        0.02127659574468085,
        0.002364066193853428,
        0.0007880220646177981,
        0.0007880220646178317,
        0.0007880220646177981,
        0.0007880220646177981,
        0.0007880220646178317,
        0.0007880220646177981,
        0.0007880220646177981,
        0.0007880220646178317,
        0.0007880220646177981,
        0.002364066193853428,
        0.002364066193853428,
        0.0,
        0.002364066193853428,
        0.002364066193853428,
        0.002364066193853428,
        0.002364066193853428,
        0.0,
        0.002364066193853428,
        0.002364066193853428,
        0.004728132387706856,
        0.0007880220646177981,
        0.0007880220646178317,
        0.0007880220646177981,
        0.0007880220646177981,
        0.0007880220646178317,
        0.0007880220646177981,
        0.002364066193853428,
        0.0,
        0.002364066193853428,
        0.0,
        0.002364066193853428,
        0.0,
        0.002364066193853428,
        0.004728132387706856,
        0.0007880220646178317,
        0.0007880220646177645,
        0.0007880220646178317,
        0.0007880220646178317,
        0.0007880220646177645,
        0.0031520882584712595,
        0.0,
        0.0007880220646178317,
        0.0007880220646177645,
        0.0007880220646178317,
        0.0,
        0.0007880220646178317,
        0.0007880220646177645,
        0.0007880220646178317,
        0.0,
        0.0007880220646178317,
        0.0007880220646177645,
        0.0007880220646178317,
        0.0,
        0.0007880220646178317,
        0.0007880220646177645,
        0.0007880220646178317,
        0.0,
        0.0007880220646178317,
        0.0007880220646177645,
        0.0007880220646178317,
        0.0,
        0.0007880220646178317,
        0.0007880220646177645,
        0.0007880220646178317,
        0.0,
        0.0007880220646178317,
        0.0007880220646177645,
        0.0007880220646178317,
        0.0,
        0.0007880220646178317,
        0.0007880220646177645,
        0.0007880220646178317,
        0.0,
        0.0007880220646178317,
        0.0007880220646177645,
        0.0007880220646178317,
        0.0,
        0.0007880220646178317,
        0.0007880220646177645,
        0.0007880220646178317,
        0.0,
        0.0007880220646178317,
        0.0007880220646177645,
        0.0007880220646178317,
        0.0,
        0.0,
        0.004728132387706856,
        0.004728132387706856,
        0.009456264775413711,
        0.0007880220646178317,
        0.0007880220646177645,
        0.0007880220646178317,
        0.0035460992907801418,
        0.001182033096926714,
        0.0,
        0.001182033096926714,
        0.001182033096926714,
        0.0,
        0.002364066193853428,
        0.0,
        0.004728132387706856,
        0.002364066193853428,
        0.0,
        0.0,
        0.001182033096926714,
        0.001182033096926714,
        0.0,
        0.0,
        0.004728132387706856,
        0.002364066193853428,
        0.0,
        0.0,
        0.001182033096926714,
        0.001182033096926714,
        0.0,
        0.0,
        0.0035460992907801418,
        0.001182033096926714,
        0.001182033096926714,
        0.001182033096926714,
        0.0,
        0.0007880220646178317,
        0.0007880220646177645,
        0.0007880220646178317,
        0.0035460992907801418,
        0.001182033096926714,
        0.0,
        0.001182033096926714,
        0.001182033096926714,
        0.0,
        0.002364066193853428,
        0.002364066193853428,
        0.001182033096926714,
        0.001182033096926714,
        0.0,
        0.001182033096926714,
        0.001182033096926714,
        0.0007880220646178317,
        0.0007880220646177645,
        0.0007880220646178317,
        0.0,
        0.004728132387706856,
        0.0,
        0.0,
        0.002364066193853428,
        0.0,
        0.0,
        0.002364066193853428,
        0.016548463356973995,
        0.0007880220646178317,
        0.0007880220646177645,
        0.0007880220646178317,
        0.0007880220646178317,
        0.0007880220646177645,
        0.0007880220646178317,
        0.0007880220646178317,
        0.0007880220646177645,
        0.0007880220646178317,
        0.0007880220646178317,
        0.0007880220646177645,
        0.0007880220646178317,
        0.0007880220646178317,
        0.0007880220646177645,
        0.0007880220646178317,
        0.002364066193853428,
        0.0,
        0.001182033096926714,
        0.001182033096926714,
        0.0,
        0.0,
        0.001182033096926714,
        0.001182033096926714,
        0.0,
        0.001182033096926714,
        0.001182033096926714,
        0.001182033096926714,
        0.001182033096926714,
        0.001182033096926714,
        0.001182033096926714,
        0.001182033096926714,
        0.010638297872340425,
        0.0007880220646178317,
        0.0007880220646177645,
        0.0007880220646178317,
        0.0007880220646178317,
        0.0007880220646177645,
        0.0007880220646178317,
        0.0007880220646178317,
        0.0007880220646177645,
        0.0007880220646178317,
        0.0007880220646178317,
        0.0007880220646177645,
        0.0007880220646178317,
        0.0007880220646178317,
        0.0007880220646177645,
        0.0007880220646178317,
        0.002364066193853428,
        0.0,
        0.001182033096926714,
        0.001182033096926714,
        0.001182033096926714,
        0.001182033096926714,
        0.0007880220646178317,
        0.0007880220646177645,
        0.0007880220646178317,
        0.002364066193853428,
        0.0,
        0.001182033096926714,
        0.001182033096926714,
        0.001182033096926714,
        0.001182033096926714,
        0.0,
        0.0007880220646178317,
        0.0007880220646177645,
        0.0007880220646178317,
        0.002364066193853428,
        0.001182033096926714,
        0.001182033096926714,
        0.0,
        0.001182033096926714,
        0.001182033096926714,
        0.0,
        0.002364066193853428,
        0.002364066193853428,
        0.002364066193853428,
        0.002364066193853428,
        0.0,
        0.0,
        0.001182033096926714,
        0.001182033096926714,
        0.0,
        0.0,
        0.004728132387706856,
        0.002364066193853428,
        0.0,
        0.0,
        0.001182033096926714,
        0.001182033096926714,
        0.0,
        0.0,
        0.0035460992907801418,
        0.001182033096926714,
        0.001182033096926714,
        0.001182033096926714,
        0.0,
        0.0007880220646178317,
        0.0007880220646177645,
        0.0007880220646178317,
        0.0035460992907801418,
        0.001182033096926714,
        0.0,
        0.001182033096926714,
        0.001182033096926714,
        0.0,
        0.002364066193853428,
        0.002364066193853428,
        0.001182033096926714,
        0.001182033096926714,
        0.0,
        0.001182033096926714,
        0.001182033096926714,
        0.0007880220646178317,
        0.0007880220646177645,
        0.0007880220646178317,
        0.0,
        0.004728132387706856,
        0.0,
        0.0,
        0.002364066193853428,
        0.0,
        0.0,
        0.002364066193853428,
        0.0070921985815602835,
        0.0,
        0.0,
        0.0007880220646178317,
        0.0007880220646177645,
        0.0007880220646178317,
        0.0,
        0.0,
        0.004728132387706856,
        0.002364066193853428,
        0.002364066193853428,
        0.004728132387706856,
        0.002364066193853428,
        0.002364066193853428,
        0.0,
        0.002364066193853428,
        0.0,
        0.002364066193853428,
        0.0,
        0.0,
        0.001182033096926714,
        0.001182033096926714,
        0.0,
        0.0,
        0.004728132387706856,
        0.004728132387706856,
        0.0,
        0.0007880220646177645,
        0.0007880220646178989,
        0.0007880220646177645,
        0.004728132387706856,
        0.002364066193853428,
        0.004728132387706856,
        0.004728132387706856,
        0.0,
        0.0007880220646177645,
        0.0007880220646178989,
        0.0007880220646177645,
        0.004728132387706856,
        0.002364066193853428,
        0.0007880220646177645,
        0.0007880220646178989,
        0.0007880220646177645,
        0.002364066193853428,
        0.002364066193853428,
        0.002364066193853428,
        0.002364066193853428,
        0.0007880220646177645,
        0.0007880220646178989,
        0.0007880220646177645,
        0.0007880220646177645,
        0.0007880220646178989,
        0.0031520882584711923,
        0.002364066193853428,
        0.0007880220646177645,
        0.0007880220646178989,
        0.0007880220646177645,
        0.0007880220646177645,
        0.0007880220646178989,
        0.00551615445232462,
        0.0007880220646177645,
        0.0007880220646178989,
        0.0007880220646177645,
        0.002364066193853428,
        0.0007880220646177645,
        0.0007880220646178989,
        0.0031520882584711923,
        0.0007880220646177645,
        0.0007880220646178989,
        0.0007880220646177645,
        0.002364066193853428,
        0.0007880220646177645,
        0.0007880220646178989,
        0.0031520882584711923,
        0.00551615445232462,
        0.0007880220646178989,
        0.0031520882584711923,
        0.0007880220646177645,
        0.0007880220646178989,
        0.0007880220646177645,
        0.0007880220646177645,
        0.0007880220646178989,
        0.0007880220646177645,
        0.0007880220646177645,
        0.0007880220646178989,
        0.0007880220646177645,
        0.0007880220646177645,
        0.0007880220646178989,
        0.0007880220646177645,
        0.004728132387706856,
        0.002364066193853428,
        0.002364066193853428,
        0.0007880220646177645,
        0.0007880220646178989,
        0.0007880220646177645,
        0.0007880220646177645,
        0.0007880220646178989,
        0.0007880220646177645,
        0.0007880220646177645,
        0.0007880220646178989,
        0.0007880220646177645,
        0.0007880220646177645,
        0.0007880220646178989,
        0.0007880220646177645,
        0.004728132387706856,
        0.002364066193853428,
        0.0007880220646177645,
        0.0007880220646178989,
        0.0007880220646177645,
        0.0035460992907801418,
        0.001182033096926714,
        0.001182033096926714,
        0.001182033096926714,
        0.002364066193853428,
        0.004728132387706856,
        0.002364066193853428,
        0.0007880220646177645,
        0.0007880220646178989,
        0.0007880220646177645,
        0.0035460992907801418,
        0.001182033096926714,
        0.001182033096926714,
        0.001182033096926714,
        0.002364066193853428,
        0.004728132387706856,
        0.0007880220646177645,
        0.0007880220646178989,
        0.0007880220646177645,
        0.002364066193853428,
        0.004728132387706856,
        0.0007880220646177645,
        0.0007880220646178989,
        0.0007880220646177645,
        0.0035460992907801418,
        0.001182033096926714,
        0.0035460992907801418,
        0.001182033096926714,
        0.0035460992907801418,
        0.001182033096926714,
        0.001182033096926714,
        0.002364066193853428,
        0.001182033096926714,
        0.002364066193853428,
        0.0007880220646177645,
        0.0007880220646178989,
        0.0007880220646177645,
        0.0007880220646177645,
        0.0007880220646178989,
        0.0031520882584711923,
        0.002364066193853428,
        0.0007880220646177645,
        0.0007880220646178989,
        0.0007880220646177645,
        0.0007880220646177645,
        0.0007880220646178989,
        0.0031520882584711923,
        0.002364066193853428,
        0.0,
        0.001182033096926714,
        0.001182033096926714,
        0.001182033096926714,
        0.001182033096926714,
        0.0,
        0.001182033096926714,
        0.001182033096926714,
        0.002364066193853428,
        0.002364066193853428,
        0.002364066193853428,
        0.0035460992907801418,
        0.001182033096926714,
        0.0,
        0.001182033096926714,
        0.001182033096926714,
        0.001182033096926714,
        0.001182033096926714,
        0.0,
        0.001182033096926714,
        0.001182033096926714,
        0.002364066193853428,
        0.002364066193853428,
        0.002364066193853428,
        0.002364066193853428,
        0.001182033096926714,
        0.001182033096926714,
        0.001182033096926714,
        0.001182033096926714,
        0.0,
        0.001182033096926714,
        0.001182033096926714,
        0.002364066193853428,
        0.001182033096926714,
        0.001182033096926714,
        0.001182033096926714,
        0.00591016548463357,
        0.0007880220646177645,
        0.0007880220646178989,
        0.0007880220646177645,
        0.0007880220646177645,
        0.0007880220646178989,
        0.0007880220646177645,
        0.0007880220646177645,
        0.0007880220646178989,
        0.0007880220646177645,
        0.0007880220646177645,
        0.0007880220646178989,
        0.0007880220646177645,
        0.0007880220646177645,
        0.0007880220646178989,
        0.0007880220646177645,
        0.0007880220646177645,
        0.0007880220646178989,
        0.00551615445232462,
        0.0007880220646177645,
        0.0007880220646178989,
        0.0007880220646177645,
        0.0007880220646177645,
        0.0007880220646178989,
        0.0007880220646177645,
        0.004728132387706856,
        0.0007880220646177645,
        0.0007880220646178989,
        0.0007880220646177645,
        0.0007880220646177645,
        0.0007880220646178989,
        0.0007880220646177645,
        0.002364066193853428,
        0.0007880220646177645,
        0.0007880220646178989,
        0.0007880220646177645,
        0.0007880220646177645,
        0.0007880220646178989,
        0.0007880220646177645,
        0.0007880220646177645,
        0.0007880220646178989,
        0.0007880220646177645,
        0.0007880220646177645,
        0.0007880220646178989,
        0.0007880220646177645,
        0.004728132387706856,
        0.002364066193853428,
        0.002364066193853428,
        0.0007880220646177645,
        0.0007880220646178989,
        0.0007880220646177645,
        0.0007880220646177645,
        0.0007880220646178989,
        0.0007880220646177645,
        0.0007880220646177645,
        0.0007880220646178989,
        0.0007880220646177645,
        0.0007880220646177645,
        0.0007880220646178989,
        0.0007880220646177645,
        0.004728132387706856,
        0.0031520882584711923,
        0.002364066193853428,
        0.002364066193853428,
        0.002364066193853428,
        0.0007880220646178989,
        0.001576044129235529,
        0.0007880220646178989,
        0.001576044129235529,
        0.0007880220646178989,
        0.001576044129235529,
        0.0007880220646178989,
        0.001576044129235529,
        0.0007880220646178989,
        0.001576044129235529,
        0.0007880220646178989,
        0.001576044129235529,
        0.0007880220646178989,
        0.001576044129235529,
        0.0007880220646178989,
        0.001576044129235529,
        0.0007880220646178989,
        0.0007880220646177645,
        0.0,
        0.002364066193853428,
        0.0,
        0.004728132387706856,
        0.0,
        0.002364066193853428,
        0.002364066193853428
      ]
    },
    "layer1": {
      "metadata": {
        "durationType": "absolute",
        "totalDuration": 102.0,
        "key": "F",
        "scale": "phrygian"
      },
      "notes": [
        {
          "midi": 61,
          "vel": 0.5511811023622047,
          "dur": 2.5
        },
        {
          "midi": 52,
          "vel": 0.47244094488188976,
          "dur": 0.1666666666666643
        },
        {
          "midi": 55,
          "vel": 0.47244094488188976,
          "dur": 0.1666666666666643
        },
        {
          "midi": 57,
          "vel": 0.47244094488188976,
          "dur": 0.1666666666666714
        },
        {
          "midi": 59,
          "vel": 0.47244094488188976,
          "dur": 0.1666666666666643
        },
        {
          "midi": 57,
          "vel": 0.47244094488188976,
          "dur": 0.1666666666666643
        },
        {
          "midi": 52,
          "vel": 0.47244094488188976,
          "dur": 0.1666666666666714
        },
        {
          "midi": 55,
          "vel": 0.47244094488188976,
          "dur": 0.1666666666666643
        },
        {
          "midi": 57,
          "vel": 0.47244094488188976,
          "dur": 0.1666666666666643
        },
        {
          "midi": 59,
          "vel": 0.47244094488188976,
          "dur": 0.1666666666666714
        },
        {
          "midi": 57,
          "vel": 0.47244094488188976,
          "dur": 0.1666666666666643
        },
        {
          "midi": 55,
          "vel": 0.47244094488188976,
          "dur": 2
        },
        {
          "midi": 61,
          "vel": 0.5511811023622047,
          "dur": 0.5
        },
        {
          "midi": 64,
          "vel": 0.5511811023622047,
          "dur": 0.5
        },
        {
          "midi": 61,
          "vel": 0.5511811023622047,
          "dur": 0.5
        },
        {
          "midi": 50,
          "vel": 0.5511811023622047,
          "dur": 0.1666666666666714
        },
        {
          "midi": 54,
          "vel": 0.5590551181102362,
          "dur": 0.1666666666666572
        },
        {
          "midi": 57,
          "vel": 0.5748031496062992,
          "dur": 0.1666666666666714
        },
        {
          "midi": 61,
          "vel": 0.5826771653543307,
          "dur": 0.1666666666666714
        },
        {
          "midi": 59,
          "vel": 0.5984251968503937,
          "dur": 0.1666666666666572
        },
        {
          "midi": 57,
          "vel": 0.6062992125984252,
          "dur": 0.1666666666666714
        },
        {
          "midi": 56,
          "vel": 0.6220472440944882,
          "dur": 0.1666666666666714
        },
        {
          "midi": 59,
          "vel": 0.6299212598425197,
          "dur": 0.1666666666666572
        },
        {
          "midi": 62,
          "vel": 0.6456692913385826,
          "dur": 0.1666666666666714
        },
        {
          "midi": 66,
          "vel": 0.6535433070866141,
          "dur": 0.1666666666666714
        },
        {
          "midi": 64,
          "vel": 0.6692913385826772,
          "dur": 0.1666666666666572
        },
        {
          "midi": 62,
          "vel": 0.6771653543307087,
          "dur": 0.1666666666666714
        },
        {
          "midi": 50,
          "vel": 0.5511811023622047,
          "dur": 0.1666666666666714
        },
        {
          "midi": 54,
          "vel": 0.5590551181102362,
          "dur": 0.1666666666666572
        },
        {
          "midi": 57,
          "vel": 0.5748031496062992,
          "dur": 0.1666666666666714
        },
        {
          "midi": 61,
          "vel": 0.5826771653543307,
          "dur": 0.1666666666666714
        },
        {
          "midi": 59,
          "vel": 0.5984251968503937,
          "dur": 0.1666666666666572
        },
        {
          "midi": 57,
          "vel": 0.6062992125984252,
          "dur": 0.1666666666666714
        },
        {
          "midi": 56,
          "vel": 0.6220472440944882,
          "dur": 0.1666666666666714
        },
        {
          "midi": 59,
          "vel": 0.6299212598425197,
          "dur": 0.1666666666666572
        },
        {
          "midi": 62,
          "vel": 0.6456692913385826,
          "dur": 0.1666666666666714
        },
        {
          "midi": 66,
          "vel": 0.6535433070866141,
          "dur": 0.1666666666666714
        },
        {
          "midi": 64,
          "vel": 0.6692913385826772,
          "dur": 0.1666666666666572
        },
        {
          "midi": 62,
          "vel": 0.6771653543307087,
          "dur": 0.1666666666666714
        }
      ],
      "timing": [
        0.49019607843137253,
        0.0032679738562091734,
        0.001633986928104552,
        0.001633986928104552,
        0.0016339869281046216,
        0.001633986928104552,
        0.001633986928104552,
        0.0016339869281046216,
        0.001633986928104552,
        0.001633986928104552,
        0.0016339869281046216,
        0.001633986928104552,
        0.004901960784313725,
        0.004901960784313725,
        0.004901960784313725,
        0.37745098039215685,
        0.0016339869281046216,
        0.0016339869281044822,
        0.0016339869281046216,
        0.0016339869281046216,
        0.0016339869281044822,
        0.0016339869281046216,
        0.0016339869281046216,
        0.0016339869281044822,
        0.0016339869281046216,
        0.0016339869281046216,
        0.0016339869281044822,
        0.06045751633986933,
        0.0016339869281046216,
        0.0016339869281044822,
        0.0016339869281046216,
        0.0016339869281046216,
        0.0016339869281044822,
        0.0016339869281046216,
        0.0016339869281046216,
        0.0016339869281044822,
        0.0016339869281046216,
        0.0016339869281046216,
        0.0016339869281044822,
        0.0016339869281046216
      ]
    },
    "layer2": {
      "metadata": {
        "durationType": "absolute",
        "totalDuration": 211.0,
        "key": "F",
        "scale": "phrygian"
      },
      "notes": [
        {
          "midi": 61,
          "vel": 0.47244094488188976,
          "dur": 0.16666666666666666
        },
        {
          "midi": 64,
          "vel": 0.47244094488188976,
          "dur": 0.16666666666666666
        },
        {
          "midi": 69,
          "vel": 0.47244094488188976,
          "dur": 0.16666666666666669
        },
        {
          "midi": 68,
          "vel": 0.47244094488188976,
          "dur": 0.16666666666666674
        },
        {
          "midi": 63,
          "vel": 0.47244094488188976,
          "dur": 0.16666666666666652
        },
        {
          "midi": 59,
          "vel": 0.47244094488188976,
          "dur": 0.16666666666666674
        },
        {
          "midi": 57,
          "vel": 0.47244094488188976,
          "dur": 0.16666666666666652
        },
        {
          "midi": 61,
          "vel": 0.47244094488188976,
          "dur": 0.16666666666666696
        },
        {
          "midi": 66,
          "vel": 0.47244094488188976,
          "dur": 0.16666666666666652
        },
        {
          "midi": 64,
          "vel": 0.47244094488188976,
          "dur": 0.16666666666666652
        },
        {
          "midi": 59,
          "vel": 0.47244094488188976,
          "dur": 0.16666666666666696
        },
        {
          "midi": 56,
          "vel": 0.47244094488188976,
          "dur": 0.16666666666666652
        },
        {
          "midi": 63,
          "vel": 0.5275590551181102,
          "dur": 0.16666666666666785
        },
        {
          "midi": 66,
          "vel": 0.5433070866141733,
          "dur": 0.16666666666666607
        },
        {
          "midi": 69,
          "vel": 0.5590551181102362,
          "dur": 0.16666666666666607
        },
        {
          "midi": 73,
          "vel": 0.5748031496062992,
          "dur": 0.16666666666666785
        },
        {
          "midi": 75,
          "vel": 0.5905511811023622,
          "dur": 0.16666666666666607
        },
        {
          "midi": 73,
          "vel": 0.6062992125984252,
          "dur": 0.16666666666666607
        },
        {
          "midi": 71,
          "vel": 0.6220472440944882,
          "dur": 0.16666666666666785
        },
        {
          "midi": 69,
          "vel": 0.6299212598425197,
          "dur": 0.16666666666666607
        },
        {
          "midi": 58,
          "vel": 0.6850393700787402,
          "dur": 0.25
        },
        {
          "midi": 64,
          "vel": 0.6929133858267716,
          "dur": 0.25
        },
        {
          "midi": 68,
          "vel": 0.7007874015748031,
          "dur": 0.25
        },
        {
          "midi": 73,
          "vel": 0.7086614173228346,
          "dur": 0.25
        },
        {
          "midi": 61,
          "vel": 0.7165354330708661,
          "dur": 0.25
        },
        {
          "midi": 66,
          "vel": 0.7244094488188977,
          "dur": 0.25
        },
        {
          "midi": 70,
          "vel": 0.7401574803149606,
          "dur": 0.25
        },
        {
          "midi": 76,
          "vel": 0.7480314960629921,
          "dur": 0.25
        },
        {
          "midi": 58,
          "vel": 0.7559055118110236,
          "dur": 0.25
        },
        {
          "midi": 64,
          "vel": 0.7637795275590551,
          "dur": 0.25
        },
        {
          "midi": 68,
          "vel": 0.7716535433070866,
          "dur": 0.25
        },
        {
          "midi": 73,
          "vel": 0.7795275590551181,
          "dur": 0.25
        },
        {
          "midi": 61,
          "vel": 0.7874015748031497,
          "dur": 0.25
        },
        {
          "midi": 66,
          "vel": 0.7007874015748031,
          "dur": 0.25
        },
        {
          "midi": 70,
          "vel": 0.6062992125984252,
          "dur": 0.25
        },
        {
          "midi": 76,
          "vel": 0.5118110236220472,
          "dur": 0.25
        },
        {
          "midi": 61,
          "vel": 0.47244094488188976,
          "dur": 0.1666666666666643
        },
        {
          "midi": 64,
          "vel": 0.47244094488188976,
          "dur": 0.1666666666666714
        },
        {
          "midi": 69,
          "vel": 0.47244094488188976,
          "dur": 0.1666666666666643
        },
        {
          "midi": 68,
          "vel": 0.47244094488188976,
          "dur": 0.1666666666666643
        },
        {
          "midi": 63,
          "vel": 0.47244094488188976,
          "dur": 0.1666666666666714
        },
        {
          "midi": 59,
          "vel": 0.47244094488188976,
          "dur": 0.1666666666666643
        },
        {
          "midi": 57,
          "vel": 0.47244094488188976,
          "dur": 0.1666666666666643
        },
        {
          "midi": 61,
          "vel": 0.47244094488188976,
          "dur": 0.1666666666666714
        },
        {
          "midi": 66,
          "vel": 0.47244094488188976,
          "dur": 0.1666666666666643
        },
        {
          "midi": 64,
          "vel": 0.47244094488188976,
          "dur": 0.1666666666666643
        },
        {
          "midi": 59,
          "vel": 0.47244094488188976,
          "dur": 0.1666666666666714
        },
        {
          "midi": 56,
          "vel": 0.47244094488188976,
          "dur": 0.1666666666666643
        },
        {
          "midi": 55,
          "vel": 0.47244094488188976,
          "dur": 0.1666666666666643
        },
        {
          "midi": 61,
          "vel": 0.47244094488188976,
          "dur": 0.1666666666666714
        },
        {
          "midi": 63,
          "vel": 0.47244094488188976,
          "dur": 0.1666666666666643
        },
        {
          "midi": 70,
          "vel": 0.47244094488188976,
          "dur": 0.1666666666666643
        },
        {
          "midi": 63,
          "vel": 0.47244094488188976,
          "dur": 0.1666666666666714
        },
        {
          "midi": 61,
          "vel": 0.47244094488188976,
          "dur": 0.1666666666666643
        },
        {
          "midi": 56,
          "vel": 0.47244094488188976,
          "dur": 0.1666666666666643
        },
        {
          "midi": 61,
          "vel": 0.47244094488188976,
          "dur": 0.1666666666666714
        },
        {
          "midi": 64,
          "vel": 0.47244094488188976,
          "dur": 0.1666666666666643
        },
        {
          "midi": 71,
          "vel": 0.47244094488188976,
          "dur": 0.1666666666666643
        },
        {
          "midi": 64,
          "vel": 0.47244094488188976,
          "dur": 0.1666666666666714
        },
        {
          "midi": 61,
          "vel": 0.47244094488188976,
          "dur": 0.1666666666666643
        },
        {
          "midi": 55,
          "vel": 0.47244094488188976,
          "dur": 0.1666666666666643
        },
        {
          "midi": 61,
          "vel": 0.47244094488188976,
          "dur": 0.1666666666666714
        },
        {
          "midi": 63,
          "vel": 0.47244094488188976,
          "dur": 0.1666666666666643
        },
        {
          "midi": 70,
          "vel": 0.47244094488188976,
          "dur": 0.1666666666666643
        },
        {
          "midi": 63,
          "vel": 0.47244094488188976,
          "dur": 0.1666666666666714
        },
        {
          "midi": 61,
          "vel": 0.47244094488188976,
          "dur": 0.1666666666666643
        },
        {
          "midi": 66,
          "vel": 0.8661417322834646,
          "dur": 0.5
        },
        {
          "midi": 69,
          "vel": 0.7559055118110236,
          "dur": 0.5
        },
        {
          "midi": 71,
          "vel": 0.6377952755905512,
          "dur": 0.5
        },
        {
          "midi": 64,
          "vel": 0.7874015748031497,
          "dur": 1
        },
        {
          "midi": 67,
          "vel": 0.7874015748031497,
          "dur": 1
        },
        {
          "midi": 65,
          "vel": 0.7480314960629921,
          "dur": 1
        },
        {
          "midi": 69,
          "vel": 0.7480314960629921,
          "dur": 1
        },
        {
          "midi": 67,
          "vel": 0.7086614173228346,
          "dur": 1
        },
        {
          "midi": 70,
          "vel": 0.7086614173228346,
          "dur": 1
        },
        {
          "midi": 65,
          "vel": 0.6692913385826772,
          "dur": 1
        },
        {
          "midi": 69,
          "vel": 0.6692913385826772,
          "dur": 1
        },
        {
          "midi": 67,
          "vel": 0.6299212598425197,
          "dur": 2
        },
        {
          "midi": 64,
          "vel": 0.6299212598425197,
          "dur": 3.75
        },
        {
          "midi": 68,
          "vel": 0.5433070866141733,
          "dur": 2
        },
        {
          "midi": 63,
          "vel": 0.47244094488188976,
          "dur": 0.25
        },
        {
          "midi": 61,
          "vel": 0.47244094488188976,
          "dur": 0.1666666666666572
        },
        {
          "midi": 64,
          "vel": 0.47244094488188976,
          "dur": 0.16666666666668561
        },
        {
          "midi": 69,
          "vel": 0.47244094488188976,
          "dur": 0.1666666666666572
        },
        {
          "midi": 68,
          "vel": 0.47244094488188976,
          "dur": 0.1666666666666572
        },
        {
          "midi": 63,
          "vel": 0.47244094488188976,
          "dur": 0.16666666666668561
        },
        {
          "midi": 59,
          "vel": 0.47244094488188976,
          "dur": 0.1666666666666572
        },
        {
          "midi": 57,
          "vel": 0.47244094488188976,
          "dur": 0.1666666666666572
        },
        {
          "midi": 61,
          "vel": 0.47244094488188976,
          "dur": 0.16666666666668561
        },
        {
          "midi": 66,
          "vel": 0.47244094488188976,
          "dur": 0.1666666666666572
        },
        {
          "midi": 64,
          "vel": 0.47244094488188976,
          "dur": 0.1666666666666572
        },
        {
          "midi": 59,
          "vel": 0.47244094488188976,
          "dur": 0.16666666666668561
        },
        {
          "midi": 56,
          "vel": 0.47244094488188976,
          "dur": 0.1666666666666572
        },
        {
          "midi": 63,
          "vel": 0.47244094488188976,
          "dur": 0.16666666666668561
        },
        {
          "midi": 66,
          "vel": 0.47244094488188976,
          "dur": 0.1666666666666572
        },
        {
          "midi": 69,
          "vel": 0.47244094488188976,
          "dur": 0.1666666666666572
        },
        {
          "midi": 73,
          "vel": 0.47244094488188976,
          "dur": 0.16666666666668561
        },
        {
          "midi": 75,
          "vel": 0.47244094488188976,
          "dur": 0.1666666666666572
        },
        {
          "midi": 73,
          "vel": 0.47244094488188976,
          "dur": 0.1666666666666572
        },
        {
          "midi": 71,
          "vel": 0.47244094488188976,
          "dur": 0.16666666666668561
        },
        {
          "midi": 69,
          "vel": 0.47244094488188976,
          "dur": 0.1666666666666572
        },
        {
          "midi": 58,
          "vel": 0.7165354330708661,
          "dur": 0.25
        },
        {
          "midi": 64,
          "vel": 0.7244094488188977,
          "dur": 0.25
        },
        {
          "midi": 68,
          "vel": 0.7322834645669292,
          "dur": 0.25
        },
        {
          "midi": 73,
          "vel": 0.7322834645669292,
          "dur": 0.25
        },
        {
          "midi": 61,
          "vel": 0.7401574803149606,
          "dur": 0.25
        },
        {
          "midi": 66,
          "vel": 0.7480314960629921,
          "dur": 0.25
        },
        {
          "midi": 70,
          "vel": 0.7559055118110236,
          "dur": 0.25
        },
        {
          "midi": 76,
          "vel": 0.7637795275590551,
          "dur": 0.25
        },
        {
          "midi": 58,
          "vel": 0.7637795275590551,
          "dur": 0.25
        },
        {
          "midi": 64,
          "vel": 0.7716535433070866,
          "dur": 0.25
        },
        {
          "midi": 68,
          "vel": 0.7795275590551181,
          "dur": 0.25
        },
        {
          "midi": 73,
          "vel": 0.7874015748031497,
          "dur": 0.25
        },
        {
          "midi": 61,
          "vel": 0.7874015748031497,
          "dur": 0.25
        },
        {
          "midi": 66,
          "vel": 0.7007874015748031,
          "dur": 0.25
        },
        {
          "midi": 70,
          "vel": 0.6062992125984252,
          "dur": 0.25
        },
        {
          "midi": 76,
          "vel": 0.5118110236220472,
          "dur": 0.25
        },
        {
          "midi": 61,
          "vel": 0.47244094488188976,
          "dur": 0.1666666666666572
        },
        {
          "midi": 64,
          "vel": 0.47244094488188976,
          "dur": 0.16666666666668561
        },
        {
          "midi": 69,
          "vel": 0.47244094488188976,
          "dur": 0.1666666666666572
        },
        {
          "midi": 68,
          "vel": 0.47244094488188976,
          "dur": 0.1666666666666572
        },
        {
          "midi": 63,
          "vel": 0.47244094488188976,
          "dur": 0.16666666666668561
        },
        {
          "midi": 59,
          "vel": 0.47244094488188976,
          "dur": 0.1666666666666572
        },
        {
          "midi": 57,
          "vel": 0.47244094488188976,
          "dur": 0.1666666666666572
        },
        {
          "midi": 61,
          "vel": 0.47244094488188976,
          "dur": 0.16666666666668561
        },
        {
          "midi": 66,
          "vel": 0.47244094488188976,
          "dur": 0.1666666666666572
        },
        {
          "midi": 64,
          "vel": 0.47244094488188976,
          "dur": 0.1666666666666572
        },
        {
          "midi": 59,
          "vel": 0.47244094488188976,
          "dur": 0.16666666666668561
        },
        {
          "midi": 56,
          "vel": 0.47244094488188976,
          "dur": 0.1666666666666572
        },
        {
          "midi": 61,
          "vel": 0.5511811023622047,
          "dur": 1
        },
        {
          "midi": 64,
          "vel": 0.47244094488188976,
          "dur": 0.16666666666668561
        },
        {
          "midi": 69,
          "vel": 0.48031496062992124,
          "dur": 0.1666666666666572
        },
        {
          "midi": 73,
          "vel": 0.48031496062992124,
          "dur": 0.1666666666666572
        },
        {
          "midi": 69,
          "vel": 0.4881889763779528,
          "dur": 0.16666666666668561
        },
        {
          "midi": 64,
          "vel": 0.49606299212598426,
          "dur": 0.1666666666666572
        },
        {
          "midi": 59,
          "vel": 0.5748031496062992,
          "dur": 1
        },
        {
          "midi": 63,
          "vel": 0.5039370078740157,
          "dur": 0.16666666666668561
        },
        {
          "midi": 68,
          "vel": 0.5039370078740157,
          "dur": 0.1666666666666572
        },
        {
          "midi": 71,
          "vel": 0.5118110236220472,
          "dur": 0.1666666666666572
        },
        {
          "midi": 68,
          "vel": 0.5196850393700787,
          "dur": 0.16666666666668561
        },
        {
          "midi": 63,
          "vel": 0.5196850393700787,
          "dur": 0.1666666666666572
        },
        {
          "midi": 57,
          "vel": 0.6062992125984252,
          "dur": 1
        },
        {
          "midi": 61,
          "vel": 0.5354330708661418,
          "dur": 0.16666666666668561
        },
        {
          "midi": 66,
          "vel": 0.5354330708661418,
          "dur": 0.1666666666666572
        },
        {
          "midi": 69,
          "vel": 0.5433070866141733,
          "dur": 0.1666666666666572
        },
        {
          "midi": 66,
          "vel": 0.5433070866141733,
          "dur": 0.16666666666668561
        },
        {
          "midi": 61,
          "vel": 0.5511811023622047,
          "dur": 0.1666666666666572
        },
        {
          "midi": 56,
          "vel": 0.6377952755905512,
          "dur": 1
        },
        {
          "midi": 59,
          "vel": 0.6377952755905512,
          "dur": 0.16666666666668561
        },
        {
          "midi": 64,
          "vel": 0.5669291338582677,
          "dur": 0.1666666666666572
        },
        {
          "midi": 68,
          "vel": 0.5748031496062992,
          "dur": 0.1666666666666572
        },
        {
          "midi": 64,
          "vel": 0.5748031496062992,
          "dur": 0.16666666666668561
        },
        {
          "midi": 59,
          "vel": 0.5826771653543307,
          "dur": 0.1666666666666572
        },
        {
          "midi": 64,
          "vel": 0.3937007874015748,
          "dur": 0.5
        },
        {
          "midi": 71,
          "vel": 0.3937007874015748,
          "dur": 0.5
        },
        {
          "midi": 76,
          "vel": 0.3937007874015748,
          "dur": 0.5
        },
        {
          "midi": 80,
          "vel": 0.3937007874015748,
          "dur": 0.5
        },
        {
          "midi": 76,
          "vel": 0.3937007874015748,
          "dur": 0.5
        },
        {
          "midi": 83,
          "vel": 0.3937007874015748,
          "dur": 0.5
        },
        {
          "midi": 76,
          "vel": 0.3937007874015748,
          "dur": 1
        },
        {
          "midi": 83,
          "vel": 0.3937007874015748,
          "dur": 1
        },
        {
          "midi": 76,
          "vel": 0.3937007874015748,
          "dur": 0.5
        },
        {
          "midi": 83,
          "vel": 0.3937007874015748,
          "dur": 0.5
        }
      ],
      "timing": [
        0.0,
        0.0007898894154818325,
        0.0007898894154818325,
        0.005529225908372828,
        0.0007898894154818329,
        0.0007898894154818319,
        0.0007898894154818329,
        0.0007898894154818319,
        0.0007898894154818339,
        0.005529225908372827,
        0.0007898894154818319,
        0.0007898894154818339,
        0.02290679304897314,
        0.0007898894154818382,
        0.0007898894154818297,
        0.0007898894154818297,
        0.0007898894154818382,
        0.0007898894154818297,
        0.0007898894154818297,
        0.0007898894154818382,
        0.08609794628751974,
        0.001184834123222749,
        0.001184834123222749,
        0.001184834123222749,
        0.001184834123222749,
        0.001184834123222749,
        0.001184834123222749,
        0.001184834123222749,
        0.001184834123222749,
        0.001184834123222749,
        0.001184834123222749,
        0.001184834123222749,
        0.001184834123222749,
        0.001184834123222749,
        0.001184834123222749,
        0.001184834123222749,
        0.001184834123222749,
        0.0007898894154818214,
        0.000789889415481855,
        0.005529225908372817,
        0.0007898894154818214,
        0.000789889415481855,
        0.0007898894154818214,
        0.0007898894154818214,
        0.000789889415481855,
        0.005529225908372817,
        0.0007898894154818214,
        0.000789889415481855,
        0.0007898894154818214,
        0.0007898894154818214,
        0.000789889415481855,
        0.0007898894154818214,
        0.0007898894154818214,
        0.000789889415481855,
        0.0007898894154818214,
        0.0007898894154818214,
        0.000789889415481855,
        0.0007898894154818214,
        0.0007898894154818214,
        0.000789889415481855,
        0.0007898894154818214,
        0.0007898894154818214,
        0.000789889415481855,
        0.0007898894154818214,
        0.0007898894154818214,
        0.000789889415481855,
        0.15007898894154817,
        0.002369668246445498,
        0.002369668246445498,
        0.28672985781990523,
        0.0,
        0.004739336492890996,
        0.0,
        0.004739336492890996,
        0.0,
        0.004739336492890996,
        0.0,
        0.004739336492890996,
        0.0,
        0.009478672985781991,
        0.008293838862559242,
        0.001184834123222749,
        0.0007898894154817876,
        0.0007898894154819223,
        0.005529225908372783,
        0.0007898894154817876,
        0.0007898894154819223,
        0.0007898894154817876,
        0.0007898894154817876,
        0.0007898894154819223,
        0.005529225908372783,
        0.0007898894154817876,
        0.0007898894154819223,
        0.022906793048973053,
        0.0007898894154819223,
        0.0007898894154817876,
        0.0007898894154817876,
        0.0007898894154819223,
        0.0007898894154817876,
        0.0007898894154817876,
        0.0007898894154819223,
        0.0860979462875197,
        0.001184834123222749,
        0.001184834123222749,
        0.001184834123222749,
        0.001184834123222749,
        0.001184834123222749,
        0.001184834123222749,
        0.001184834123222749,
        0.001184834123222749,
        0.001184834123222749,
        0.001184834123222749,
        0.001184834123222749,
        0.001184834123222749,
        0.001184834123222749,
        0.001184834123222749,
        0.001184834123222749,
        0.001184834123222749,
        0.0007898894154817876,
        0.0007898894154819223,
        0.005529225908372783,
        0.0007898894154817876,
        0.0007898894154819223,
        0.0007898894154817876,
        0.0007898894154817876,
        0.0007898894154819223,
        0.005529225908372783,
        0.0007898894154817876,
        0.0007898894154819223,
        0.0007898894154817876,
        0.0007898894154817876,
        0.0007898894154819223,
        0.0007898894154817876,
        0.0007898894154817876,
        0.0007898894154819223,
        0.0007898894154817876,
        0.0007898894154817876,
        0.0007898894154819223,
        0.0007898894154817876,
        0.0007898894154817876,
        0.0007898894154819223,
        0.0007898894154817876,
        0.0007898894154817876,
        0.0007898894154819223,
        0.0007898894154817876,
        0.0007898894154817876,
        0.0007898894154819223,
        0.0007898894154817876,
        0.0007898894154817876,
        0.0007898894154819223,
        0.0007898894154817876,
        0.0007898894154817876,
        0.0007898894154819223,
        0.12875197472353866,
        0.002369668246445498,
        0.002369668246445498,
        0.002369668246445498,
        0.002369668246445498,
        0.0,
        0.002369668246445498,
        0.0,
        0.004739336492890996,
        0.0,
        0.002369668246445498
      ]
    }
  }
}