{
  "metadata": {
    "exportDate": "2025-07-30",
    "exportTime": "21:42:19",
    "source": "Melody Converter",
    "format": "decoupled-timing"
  },
  "layers": {
    "layer0": {
      "metadata": {
        "durationType": "absolute",
        "totalDuration": 0,
        "key": "F",
        "scale": "phrygian"
      },
      "notes": [],
      "timing": [
        0
      ]
    },
    "layer2": {
      "metadata": {
        "durationType": "absolute",
        "totalDuration": 0,
        "key": "F",
        "scale": "phrygian"
      },
      "notes": [],
      "timing": [
        0
      ]
    },
    "layer1": {
      "metadata": {
        "durationType": "absolute",
        "totalDuration": 31,
        "key": "F",
        "scale": "phrygian"
      },
      "notes": [
        {
          "midi": 78,
          "vel": 1.5,
          "dur": 0.5
        },
        {
          "midi": 73,
          "vel": 1.25,
          "dur": 0.5
        },
        {
          "midi": 70,
          "vel": 1,
          "dur": 0.5
        },
        {
          "midi": 63,
          "vel": 0.75,
          "dur": 0.5
        },
        {
          "midi": 78,
          "vel": 0.5,
          "dur": 0.5
        },
        {
          "midi": 77,
          "vel": 1,
          "dur": 0.5
        },
        {
          "midi": 75,
          "vel": 1,
          "dur": 0.5
        },
        {
          "midi": 77,
          "vel": 1,
          "dur": 0.5
        },
        {
          "midi": 89,
          "vel": 1,
          "dur": 0.5
        },
        {
          "midi": 78,
          "vel": 1,
          "dur": 0.5
        },
        {
          "midi": 75,
          "vel": 1,
          "dur": 0.5
        },
        {
          "midi": 77,
          "vel": 1,
          "dur": 0.5
        },
        {
          "midi": 78,
          "vel": 1,
          "dur": 0.5
        },
        {
          "midi": 90,
          "vel": 1,
          "dur": 0.5
        },
        {
          "midi": 77,
          "vel": 1,
          "dur": 0.5
        },
        {
          "midi": 78,
          "vel": 1,
          "dur": 0.5
        },
        {
          "midi": 94,
          "vel": 1,
          "dur": 0.5
        },
        {
          "midi": 82,
          "vel": 1,
          "dur": 0.5
        },
        {
          "midi": 73,
          "vel": 1,
          "dur": 0.5
        },
        {
          "midi": 77,
          "vel": 1,
          "dur": 0.5
        },
        {
          "midi": 89,
          "vel": 1,
          "dur": 0.5
        },
        {
          "midi": 78,
          "vel": 1,
          "dur": 0.5
        },
        {
          "midi": 72,
          "vel": 1.5,
          "dur": 0.5
        },
        {
          "midi": 87,
          "vel": 1.3333333333333333,
          "dur": 0.5
        },
        {
          "midi": 82,
          "vel": 1.1666666666666667,
          "dur": 0.5
        },
        {
          "midi": 72,
          "vel": 1,
          "dur": 0.5
        },
        {
          "midi": 70,
          "vel": 1.5,
          "dur": 0.5
        },
        {
          "midi": 85,
          "vel": 1.3333333333333333,
          "dur": 0.5
        },
        {
          "midi": 84,
          "vel": 1.1666666666666667,
          "dur": 0.5
        },
        {
          "midi": 70,
          "vel": 1,
          "dur": 0.5
        },
        {
          "midi": 72,
          "vel": 1.5,
          "dur": 0.5
        },
        {
          "midi": 87,
          "vel": 1.3333333333333333,
          "dur": 0.5
        },
        {
          "midi": 85,
          "vel": 1.1666666666666667,
          "dur": 0.5
        },
        {
          "midi": 72,
          "vel": 1,
          "dur": 0.5
        },
        {
          "midi": 73,
          "vel": 1,
          "dur": 0.5
        },
        {
          "midi": 89,
          "vel": 1,
          "dur": 0.5
        },
        {
          "midi": 87,
          "vel": 1,
          "dur": 0.5
        },
        {
          "midi": 73,
          "vel": 1,
          "dur": 0.5
        },
        {
          "midi": 72,
          "vel": 1,
          "dur": 0.5
        },
        {
          "midi": 85,
          "vel": 1,
          "dur": 0.5
        },
        {
          "midi": 87,
          "vel": 1,
          "dur": 0.5
        },
        {
          "midi": 72,
          "vel": 1,
          "dur": 0.5
        },
        {
          "midi": 70,
          "vel": 1,
          "dur": 0.5
        },
        {
          "midi": 85,
          "vel": 1,
          "dur": 0.5
        },
        {
          "midi": 84,
          "vel": 1,
          "dur": 0.5
        },
        {
          "midi": 70,
          "vel": 1,
          "dur": 0.5
        },
        {
          "midi": 70,
          "vel": 1,
          "dur": 0.5
        },
        {
          "midi": 85,
          "vel": 1,
          "dur": 0.5
        },
        {
          "midi": 72,
          "vel": 1,
          "dur": 0.5
        },
        {
          "midi": 87,
          "vel": 1,
          "dur": 0.5
        },
        {
          "midi": 73,
          "vel": 1,
          "dur": 0.5
        },
        {
          "midi": 89,
          "vel": 1,
          "dur": 0.5
        },
        {
          "midi": 75,
          "vel": 1,
          "dur": 0.5
        },
        {
          "midi": 87,
          "vel": 1,
          "dur": 0.5
        },
        {
          "midi": 75,
          "vel": 1,
          "dur": 0.5
        },
        {
          "midi": 85,
          "vel": 1,
          "dur": 0.5
        },
        {
          "midi": 70,
          "vel": 1,
          "dur": 0.5
        },
        {
          "midi": 84,
          "vel": 1,
          "dur": 0.5
        },
        {
          "midi": 72,
          "vel": 1,
          "dur": 0.5
        },
        {
          "midi": 82,
          "vel": 1,
          "dur": 0.5
        },
        {
          "midi": 70,
          "vel": 1,
          "dur": 0.5
        },
        {
          "midi": 85,
          "vel": 1,
          "dur": 0.5
        }
      ],
      "timing": [
        0,
        0.5,
        0.5,
        0.5,
        0.5,
        0.5,
        0.5,
        0.5,
        0.5,
        0.5,
        0.5,
        0.5,
        0.5,
        0.5,
        0.5,
        0.5,
        0.5,
        0.5,
        0.5,
        0.5,
        0.5,
        0.5,
        0.5,
        0.5,
        0.5,
        0.5,
        0.5,
        0.5,
        0.5,
        0.5,
        0.5,
        0.5,
        0.5,
        0.5,
        0.5,
        0.5,
        0.5,
        0.5,
        0.5,
        0.5,
        0.5,
        0.5,
        0.5,
        0.5,
        0.5,
        0.5,
        0.5,
        0.5,
        0.5,
        0.5,
        0.5,
        0.5,
        0.5,
        0.5,
        0.5,
        0.5,
        0.5,
        0.5,
        0.5,
        0.5,
        0.5,
        0.5
      ]
    }
  }
}